<?xml version="1.0" encoding="UTF-8"?>
<!DOCTYPE svg PUBLIC "-//W3C//DTD SVG 1.1//EN" "http://www.w3.org/Graphics/SVG/1.1/DTD/svg11.dtd">
<!-- Creator: CorelDRAW 2019 (64-Bit) -->
<svg xmlns="http://www.w3.org/2000/svg" xml:space="preserve" width="779px" height="1080px" version="1.1" style="shape-rendering:geometricPrecision; text-rendering:geometricPrecision; image-rendering:optimizeQuality; fill-rule:evenodd; clip-rule:evenodd"
viewBox="0 0 779 1079.55"
 xmlns:xlink="http://www.w3.org/1999/xlink"
 xmlns:xodm="http://www.corel.com/coreldraw/odm/2003">
 <defs>
  <style type="text/css">
   <![CDATA[
    .fil5 {fill:#FEFEFE}
    .fil7 {fill:black}
    .fil12 {fill:#00853A}
    .fil3 {fill:#00923F}
    .fil11 {fill:#016E30}
    .fil2 {fill:#28166F}
    .fil9 {fill:#7F7A00}
    .fil4 {fill:#DA251D}
    .fil0 {fill:#F8C300}
    .fil10 {fill:#F9C900}
    .fil6 {fill:#FFF500}
    .fil8 {fill:#332C2B;fill-rule:nonzero}
    .fil1 {fill:black;fill-rule:nonzero}
    .fil14 {fill:#DA251D;fill-rule:nonzero}
    .fil13 {fill:#FFF500;fill-rule:nonzero}
   ]]>
  </style>
 </defs>
 <g id="Layer_x0020_1">
  <metadata id="CorelCorpID_0Corel-Layer"/>
  <path class="fil0" d="M3.81 3.81l771.38 0 0 722.8c0,171.28 -245.58,274.74 -385.69,348.65 -140.11,-73.91 -385.69,-177.37 -385.69,-348.65l0 -722.8z"/>
  <path class="fil1" d="M3.81 0l775.19 0 0 726.61c0,154.6 -195.28,253.88 -337.69,326.28 -17.86,9.08 -34.91,17.75 -50.04,25.73l-1.77 0.93 -1.77 -0.93c-15.13,-7.98 -32.18,-16.65 -50.04,-25.73 -142.41,-72.4 -337.69,-171.68 -337.69,-326.28l0 -726.61 3.81 0zm767.57 7.62l-763.76 0 0 718.99c0,149.93 192.87,247.99 333.52,319.49 16.84,8.56 32.93,16.74 48.36,24.86 15.43,-8.12 31.52,-16.3 48.36,-24.86 140.65,-71.5 333.52,-169.56 333.52,-319.49l0 -718.99z"/>
  <path class="fil2" d="M507.29 161.89l235.57 0 0 549.04c0,114.88 -120.59,196.46 -235.57,258.49l0 -807.53z"/>
  <path class="fil1" d="M507.29 158.08l239.38 0 0 552.85c0,58.63 -30.63,108.63 -75.86,151.82 -44.82,42.79 -103.99,78.87 -161.72,110.02l-5.61 3.03 0 -817.72 3.81 0zm231.76 7.62l-227.95 0 0 797.33c55.44,-30.18 111.69,-64.95 154.47,-105.79 43.81,-41.83 73.48,-90.07 73.48,-146.31l0 -545.23z"/>
  <path class="fil3" d="M36.14 161.89l235.57 0 0 807.53c-114.98,-62.03 -235.57,-143.61 -235.57,-258.49l0 -549.04z"/>
  <path class="fil1" d="M36.14 158.08l239.38 0 0 817.72 -5.61 -3.03c-57.73,-31.15 -116.9,-67.23 -161.72,-110.02 -45.23,-43.19 -75.86,-93.19 -75.86,-151.82l0 -552.85 3.81 0zm231.76 7.62l-227.95 0 0 545.23c0,56.25 29.67,104.48 73.48,146.31 42.78,40.84 99.03,75.61 154.47,105.79l0 -797.33z"/>
  <path class="fil4" d="M271.71 161.89l235.58 0 0 807.53c-42.08,22.7 -83.4,42.79 -117.79,60.92 -34.39,-18.13 -75.71,-38.22 -117.79,-60.92l0 -807.53z"/>
  <path class="fil1" d="M271.71 158.08l239.39 0 0 813.6 -2.01 1.09c-24.89,13.43 -49.19,25.78 -71.99,37.37 -16.38,8.33 -32,16.28 -45.83,23.57l-1.77 0.93 -1.77 -0.93c-13.83,-7.29 -29.45,-15.24 -45.83,-23.57 -22.8,-11.59 -47.1,-23.94 -71.99,-37.37l-2.01 -1.09 0 -813.6 3.81 0zm231.77 7.62l-227.96 0 0 801.45c23.73,12.76 47.49,24.85 69.83,36.2 15.35,7.81 30.02,15.27 44.15,22.7 14.13,-7.43 28.8,-14.89 44.15,-22.7 22.34,-11.35 46.1,-23.44 69.83,-36.2l0 -801.45z"/>
  <rect class="fil5" x="36.14" y="41.89" width="706.71" height="95.87"/>
  <path class="fil1" d="M36.14 38.08l710.53 0 0 103.49 -714.34 0 0 -103.49 3.81 0zm702.91 7.62l-699.1 0 0 88.25 699.1 0 0 -88.25z"/>
  <rect class="fil6" x="379.92" y="269.63" width="19.16" height="490.9" rx="9.58" ry="233.18"/>
  <path class="fil7" d="M389.5 262.03c4.74,0 9.04,1.93 12.15,5.05 3.11,3.11 5.05,7.41 5.05,12.15l0 471.74c0,4.74 -1.94,9.04 -5.05,12.16 -3.11,3.11 -7.41,5.04 -12.15,5.04 -4.74,0 -9.04,-1.93 -12.15,-5.04 -3.11,-3.12 -5.05,-7.42 -5.05,-12.16l0 -471.74c0,-4.74 1.94,-9.04 5.05,-12.15 3.11,-3.12 7.41,-5.05 12.15,-5.05zm0 7.62c5.27,0 9.58,4.31 9.58,9.58l0 471.74c0,5.27 -4.31,9.58 -9.58,9.58 -5.27,0 -9.58,-4.31 -9.58,-9.58l0 -471.74c0,-5.27 4.31,-9.58 9.58,-9.58z"/>
  <path class="fil8" d="M389.65 192.7l281.67 76.95 -563.64 0c93.93,-25.66 187.82,-51.61 281.82,-76.99l0.15 0.04zm138.45 39.02l-138.6 -37.86 -273.18 74.63 546.36 0 -134.58 -36.77z"/>
  <path class="fil6" d="M638.05 276.91c16.29,0 34.19,43.43 -1.12,27.47l-2.29 -1.04c-3.89,5.68 -12.03,7.97 -25.64,1.04l-2.29 -1.17c-5.72,5.84 -17.24,7.96 -29.8,1.17 -5.74,5.13 -16.21,6.38 -26.88,-0.79 -4.51,5.79 -13.42,7.6 -22.98,-0.11l-4.2 -3.38c-3.31,8.24 -13.87,12.1 -21.5,4.46l-3.55 -3.55c-3.42,9.47 -20.4,10.63 -28.59,1.08 -4.24,8.85 -19.39,8.77 -25.88,-0.07 -3.98,9.63 -18.46,8.05 -25.3,-0.19 -5.54,8.34 -19.48,8.43 -28.53,3.5 -9.04,4.94 -22.99,4.84 -28.53,-3.5 -6.84,8.24 -21.32,9.82 -25.3,0.19 -6.49,8.84 -21.64,8.92 -25.88,0.07 -8.19,9.55 -25.17,8.39 -28.59,-1.08l-3.55 3.55c-7.63,7.64 -18.19,3.78 -21.5,-4.46l-4.2 3.38c-9.56,7.71 -18.47,5.9 -22.98,0.11 -10.67,7.17 -21.14,5.92 -26.88,0.79 -12.56,6.79 -24.08,4.67 -29.8,-1.17l-2.29 1.17c-13.61,6.93 -21.75,4.64 -25.64,-1.04l-2.29 1.04c-35.31,15.96 -17.41,-27.47 -1.11,-27.47l497.09 0z"/>
  <path class="fil8" d="M638.05 276.33c6.99,0 14.22,7.62 17.7,15.39 1.44,3.22 2.25,6.48 2.14,9.24 -0.11,2.88 -1.21,5.24 -3.58,6.52 -3.23,1.74 -8.84,1.39 -17.62,-2.57l-1.86 -0.84c-2.2,2.97 -5.58,4.97 -10.3,5.16 -4.17,0.17 -9.4,-1.08 -15.79,-4.33l-1.92 -0.98c-3.15,3.04 -7.85,5.03 -13.43,5.25 -4.92,0.19 -10.55,-1 -16.4,-4.09 -3.14,2.66 -7.55,4.24 -12.58,4.09 -4.42,-0.13 -9.32,-1.59 -14.26,-4.81 -2.34,2.78 -5.69,4.59 -9.64,4.81 -4.01,0.23 -8.64,-1.19 -13.41,-4.91l-4.02 -3.23c-0.73,1.58 -1.74,3 -2.92,4.18 -1.83,1.82 -4.1,3.12 -6.55,3.7 -2.46,0.59 -5.11,0.46 -7.68,-0.57 -1.73,-0.7 -3.42,-1.8 -4.99,-3.37l-2.93 -2.94c-0.66,1.42 -1.62,2.64 -2.8,3.65 -2.19,1.89 -5.16,3.06 -8.39,3.45 -3.21,0.4 -6.69,0.04 -9.93,-1.14 -2.8,-1.01 -5.43,-2.64 -7.56,-4.9 -0.79,1.38 -1.86,2.53 -3.11,3.45 -2.26,1.66 -5.15,2.56 -8.17,2.71 -3,0.15 -6.15,-0.46 -8.97,-1.81 -2.13,-1.02 -4.07,-2.45 -5.62,-4.31 -0.7,1.35 -1.61,2.47 -2.68,3.36 -2.01,1.66 -4.56,2.54 -7.3,2.7 -2.7,0.17 -5.58,-0.35 -8.29,-1.47 -2.66,-1.1 -5.15,-2.78 -7.12,-4.95 -2.75,3.68 -7.16,5.68 -11.99,6.27 -5.57,0.68 -11.73,-0.49 -16.58,-3.06 -4.84,2.57 -11.01,3.74 -16.57,3.06 -4.84,-0.59 -9.25,-2.59 -12,-6.27 -1.97,2.17 -4.46,3.85 -7.12,4.95 -2.71,1.12 -5.59,1.64 -8.29,1.47 -2.74,-0.16 -5.29,-1.04 -7.3,-2.7 -1.07,-0.89 -1.98,-2.01 -2.68,-3.36 -1.55,1.86 -3.49,3.29 -5.62,4.31 -2.82,1.35 -5.97,1.96 -8.97,1.81 -3.02,-0.15 -5.91,-1.05 -8.17,-2.71 -1.25,-0.92 -2.32,-2.07 -3.11,-3.45 -2.13,2.26 -4.76,3.89 -7.56,4.9 -3.24,1.18 -6.72,1.54 -9.93,1.14 -3.23,-0.39 -6.2,-1.57 -8.39,-3.45 -1.18,-1.01 -2.14,-2.23 -2.8,-3.65l-2.93 2.94c-1.57,1.57 -3.26,2.67 -4.99,3.37 -2.57,1.03 -5.22,1.16 -7.68,0.57 -2.45,-0.58 -4.72,-1.88 -6.55,-3.7 -1.18,-1.18 -2.19,-2.6 -2.92,-4.18l-4.01 3.23c-4.78,3.72 -9.41,5.14 -13.42,4.91 -3.95,-0.22 -7.3,-2.03 -9.64,-4.81 -4.94,3.22 -9.84,4.68 -14.26,4.81 -5.03,0.15 -9.44,-1.43 -12.58,-4.09 -5.85,3.09 -11.48,4.28 -16.4,4.09 -5.58,-0.22 -10.28,-2.21 -13.43,-5.25l-1.92 0.98c-6.39,3.25 -11.62,4.5 -15.79,4.33 -4.72,-0.19 -8.1,-2.19 -10.3,-5.16l-1.86 0.84c-8.78,3.96 -14.39,4.31 -17.62,2.57 -2.37,-1.28 -3.47,-3.64 -3.58,-6.52 -0.11,-2.76 0.7,-6.02 2.14,-9.24 3.48,-7.77 10.72,-15.39 17.71,-15.39l497.09 0zm16.64 15.86c-3.32,-7.42 -10.14,-14.7 -16.64,-14.7l-497.09 0c-6.51,0 -13.33,7.28 -16.65,14.7 -1.38,3.07 -2.15,6.15 -2.05,8.73 0.1,2.46 1.01,4.47 2.98,5.54 2.93,1.58 8.19,1.19 16.59,-2.61l2.74 -1.23 0.27 0.4c1.99,2.9 5.16,4.87 9.68,5.06 3.98,0.16 9.01,-1.06 15.21,-4.21l2.68 -1.37 0.29 0.31c2.95,3 7.5,4.99 12.95,5.2 4.84,0.19 10.38,-1.01 16.17,-4.14l0.35 -0.19 0.31 0.27c2.94,2.63 7.19,4.21 12.08,4.06 4.34,-0.13 9.19,-1.61 14.09,-4.9l0.44 -0.3 0.47 0.59c2.14,2.66 5.28,4.41 8.99,4.62 3.75,0.21 8.11,-1.14 12.64,-4.67l5.21 -4.19 0.29 0.72c0.69,1.73 1.72,3.26 2.97,4.51 1.67,1.67 3.75,2.86 6,3.39 2.24,0.53 4.65,0.42 6.98,-0.52 1.59,-0.64 3.15,-1.66 4.6,-3.11l4.19 -4.19 0.31 0.85c0.57,1.58 1.54,2.91 2.8,3.99 2.02,1.73 4.77,2.81 7.78,3.18 3.04,0.38 6.33,0.03 9.4,-1.08 2.87,-1.04 5.55,-2.76 7.63,-5.19l0.58 -0.67 0.39 0.8c0.73,1.53 1.82,2.79 3.14,3.76 2.08,1.53 4.74,2.36 7.54,2.49 2.82,0.14 5.78,-0.43 8.42,-1.69 2.24,-1.07 4.26,-2.65 5.78,-4.72l0.61 -0.83 0.4 0.95c0.65,1.58 1.6,2.84 2.75,3.8 1.81,1.5 4.13,2.28 6.62,2.43 2.54,0.16 5.25,-0.33 7.79,-1.38 2.72,-1.12 5.25,-2.89 7.16,-5.19l0.5 -0.6 0.43 0.65c2.5,3.77 6.82,5.79 11.61,6.38 5.44,0.66 11.47,-0.52 16.16,-3.07l0.27 -0.15 0.28 0.15c4.68,2.55 10.71,3.73 16.16,3.07 4.78,-0.59 9.1,-2.61 11.6,-6.38l0.43 -0.65 0.5 0.6c1.91,2.3 4.44,4.07 7.16,5.19 2.54,1.05 5.25,1.54 7.79,1.38 2.49,-0.15 4.81,-0.93 6.62,-2.43 1.15,-0.96 2.1,-2.22 2.75,-3.8l0.4 -0.95 0.61 0.83c1.52,2.07 3.54,3.65 5.78,4.72 2.64,1.26 5.6,1.83 8.42,1.69 2.8,-0.13 5.46,-0.96 7.54,-2.49 1.32,-0.97 2.41,-2.23 3.14,-3.76l0.39 -0.8 0.58 0.67c2.08,2.43 4.76,4.15 7.63,5.19 3.07,1.11 6.36,1.46 9.4,1.08 3.01,-0.37 5.76,-1.45 7.78,-3.18 1.25,-1.08 2.23,-2.41 2.8,-3.99l0.31 -0.85 4.19 4.19c1.45,1.45 3.01,2.47 4.6,3.11 2.33,0.94 4.74,1.05 6.98,0.52 2.25,-0.53 4.33,-1.72 6,-3.39 1.25,-1.25 2.28,-2.78 2.97,-4.51l0.3 -0.72c1.73,1.4 3.46,2.81 5.2,4.19 4.53,3.53 8.89,4.88 12.64,4.67 3.71,-0.21 6.85,-1.96 8.99,-4.62l0.47 -0.59 0.44 0.3c4.9,3.29 9.75,4.77 14.09,4.9 4.89,0.15 9.14,-1.43 12.08,-4.06l0.31 -0.27 0.35 0.19c5.79,3.13 11.33,4.33 16.17,4.14 5.45,-0.21 10,-2.2 12.95,-5.2l0.29 -0.31 2.68 1.37c6.2,3.15 11.23,4.37 15.21,4.21 4.52,-0.19 7.69,-2.16 9.68,-5.06l0.27 -0.4 2.74 1.23c8.4,3.8 13.66,4.19 16.59,2.61 1.97,-1.06 2.88,-3.08 2.98,-5.54 0.1,-2.59 -0.67,-5.66 -2.05,-8.73z"/>
  <path class="fil9" d="M661.45 269.29c13.32,10.5 10.68,43.43 -24.62,27.47l-2.3 -1.04c-3.88,5.68 -12.01,7.97 -25.62,1.04l-2.29 -1.17c-5.72,5.84 -17.23,7.96 -29.79,1.17 -5.73,5.13 -16.21,6.38 -26.87,-0.79 -4.51,5.79 -13.41,7.6 -22.97,-0.11l-4.2 -3.38c-3.3,8.24 -13.86,12.1 -21.49,4.46l-3.54 -3.55c-3.43,9.47 -20.39,10.63 -28.59,1.08 -4.23,8.85 -19.37,8.77 -25.86,-0.07 -3.98,9.63 -18.45,8.05 -25.3,-0.19 -5.53,8.34 -19.47,8.43 -28.51,3.49 -9.04,4.94 -22.98,4.85 -28.51,-3.49 -6.85,8.24 -21.32,9.82 -25.3,0.19 -6.49,8.84 -21.63,8.92 -25.86,0.07 -8.2,9.55 -25.16,8.39 -28.59,-1.08l-3.54 3.55c-7.63,7.64 -18.19,3.78 -21.49,-4.46l-4.2 3.38c-9.56,7.71 -18.46,5.9 -22.97,0.11 -10.66,7.17 -21.14,5.92 -26.87,0.79 -12.56,6.79 -24.07,4.67 -29.79,-1.17l-2.29 1.17c-13.61,6.93 -21.74,4.64 -25.62,-1.04l-2.3 1.04c-35.3,15.96 -37.94,-16.97 -24.62,-27.47l543.9 0z"/>
  <path class="fil6" d="M140.25 293.77c-39.29,15.84 -38.44,-21.91 -20.11,-26.92l269.36 -73.59 -249.25 100.51z"/>
  <path class="fil8" d="M140.53 294.48c-13.71,5.52 -22.71,4.61 -27.86,0.81 -2.33,-1.72 -3.87,-4.03 -4.7,-6.6 -0.83,-2.54 -0.96,-5.35 -0.48,-8.1 1.12,-6.43 5.63,-12.61 12.45,-14.47l269.36 -73.59c0.4,-0.11 0.82,0.13 0.93,0.53 0.1,0.38 -0.09,0.76 -0.45,0.9l-249.25 100.52zm-26.95 -0.41c4.76,3.51 13.25,4.29 26.38,-1l237.19 -95.65 -256.81 70.16c-6.2,1.69 -10.32,7.36 -11.35,13.28 -0.44,2.51 -0.32,5.06 0.43,7.36 0.74,2.29 2.1,4.33 4.16,5.85z"/>
  <path class="fil6" d="M168.38 293.77c-34.85,15.84 -34.1,-21.91 -17.84,-26.92l238.96 -73.59 -221.12 100.51z"/>
  <path class="fil8" d="M168.69 294.47c-11.62,5.28 -19.44,4.7 -24.14,1.34 -2.26,-1.61 -3.78,-3.85 -4.66,-6.39 -0.86,-2.51 -1.09,-5.31 -0.76,-8.09 0.8,-6.69 4.89,-13.27 11.19,-15.21l238.96 -73.59c0.4,-0.12 0.83,0.11 0.95,0.51 0.11,0.37 -0.07,0.76 -0.42,0.91l-221.12 100.52zm-23.26 0.11c4.29,3.06 11.6,3.52 22.64,-1.5l210.3 -95.6 -227.6 70.09c-5.69,1.76 -9.39,7.79 -10.13,13.94 -0.3,2.55 -0.09,5.13 0.69,7.42 0.78,2.25 2.12,4.24 4.1,5.65z"/>
  <path class="fil6" d="M202.3 292.97c-29.56,15.74 -54.5,-12.75 -15.1,-26.93l202.3 -72.78 -187.2 99.71z"/>
  <path class="fil8" d="M202.65 293.64c-11.54,6.15 -22.44,5.67 -29.24,1.93 -2.75,-1.51 -4.85,-3.55 -6.07,-5.92 -1.25,-2.4 -1.6,-5.12 -0.84,-7.93l0.02 -0.04c1.56,-5.7 7.74,-11.79 20.42,-16.35l202.3 -72.78c0.4,-0.14 0.83,0.06 0.97,0.45 0.14,0.38 -0.04,0.79 -0.39,0.95l-187.17 99.69zm-28.51 0.6c6.41,3.52 16.76,3.94 27.8,-1.94l177.92 -94.76 -192.41 69.22c-12.16,4.37 -18.03,10.07 -19.47,15.33l-0.01 0.03c-0.65,2.43 -0.35,4.77 0.72,6.83 1.08,2.1 2.97,3.92 5.45,5.29z"/>
  <path class="fil6" d="M228.18 292.82c-25.49,15.73 -50.24,-11.41 -13.01,-26.92l174.33 -72.64 -161.32 99.56z"/>
  <path class="fil8" d="M228.58 293.47c-9.67,5.97 -19.28,5.9 -25.62,2.65 -2.67,-1.37 -4.77,-3.31 -6.06,-5.6 -1.31,-2.32 -1.8,-5.01 -1.24,-7.84 1.16,-5.85 6.86,-12.34 19.22,-17.48l174.33 -72.64c0.39,-0.16 0.83,0.02 0.99,0.41 0.15,0.36 0,0.77 -0.33,0.96l-161.29 99.54zm-24.93 1.3c5.92,3.04 14.96,3.06 24.13,-2.59l153.16 -94.53 -165.48 68.95c-11.82,4.92 -17.23,10.97 -18.3,16.37 -0.49,2.46 -0.06,4.79 1.07,6.8 1.15,2.04 3.03,3.77 5.42,5z"/>
  <path class="fil6" d="M250.94 292.96c-21.9,15.76 -40.4,-12.71 -11.17,-26.92l149.73 -72.78 -138.56 99.7z"/>
  <path class="fil8" d="M251.38 293.58c-7.59,5.46 -14.83,5.77 -19.97,3.21 -2.42,-1.2 -4.38,-3.06 -5.69,-5.31 -1.3,-2.24 -1.95,-4.9 -1.77,-7.71 0.4,-6.23 4.89,-13.27 15.48,-18.41l149.74 -72.78c0.38,-0.18 0.83,-0.03 1.01,0.35 0.17,0.35 0.05,0.77 -0.27,0.97l-138.53 99.68zm-19.29 1.85c4.68,2.33 11.34,2 18.41,-3.08l131.38 -94.54 -141.78 68.91c-10.02,4.87 -14.27,11.4 -14.63,17.14 -0.16,2.51 0.41,4.87 1.57,6.86 1.16,2 2.9,3.64 5.05,4.71z"/>
  <path class="fil6" d="M276.83 293.93c-14.06,12.56 -37.97,-9.43 -9.09,-26.92l121.76 -73.75 -112.67 100.67z"/>
  <path class="fil8" d="M277.33 294.49c-4.91,4.4 -10.98,4.78 -15.78,2.65l-0.06 -0.03c-2.27,-1.02 -4.26,-2.61 -5.69,-4.6l-0.04 -0.04c-1.43,-2.01 -2.32,-4.43 -2.39,-7.09 -0.15,-5.8 3.59,-12.73 13.98,-19.02l121.76 -73.75c0.35,-0.21 0.82,-0.1 1.04,0.26 0.2,0.32 0.12,0.74 -0.16,0.97l-112.66 100.65zm-15.16 1.26c4.29,1.9 9.73,1.56 14.15,-2.39l106.56 -95.2 -114.75 69.5c-9.83,5.95 -13.38,12.38 -13.24,17.68 0.06,2.34 0.84,4.47 2.11,6.24l0.03 0.04c1.28,1.78 3.06,3.19 5.08,4.11l0.06 0.02z"/>
  <path class="fil6" d="M310.08 290.73c-12.48,15.32 -51.18,4.27 -15.67,-23.4l95.09 -74.07 -79.42 97.47z"/>
  <path class="fil8" d="M310.67 291.21c-4.94,6.06 -13.82,8.15 -20.86,6.83 -2.95,-0.55 -5.59,-1.7 -7.52,-3.41 -1.98,-1.75 -3.21,-4.08 -3.27,-6.93 -0.11,-5.28 3.91,-12.38 14.93,-20.97l95.08 -74.07c0.33,-0.26 0.81,-0.2 1.07,0.13 0.23,0.3 0.21,0.71 -0.03,0.98l-79.4 97.44zm-20.58 5.34c6.57,1.23 14.83,-0.69 19.4,-6.3l75.18 -92.26 -89.79 69.94c-10.58,8.25 -14.44,14.9 -14.34,19.74 0.04,2.39 1.09,4.35 2.75,5.82 1.72,1.52 4.11,2.55 6.8,3.06z"/>
  <path class="fil6" d="M336.66 289.62c-8.6,15.68 -47.11,8.5 -17.67,-22.39l70.51 -73.97 -52.84 96.36z"/>
  <path class="fil8" d="M337.33 289.98c-3.28,5.97 -10.65,8.79 -17.24,8.39 -2.96,-0.17 -5.77,-1 -8,-2.47 -2.27,-1.5 -3.94,-3.68 -4.53,-6.52 -1.11,-5.27 1.51,-12.84 10.88,-22.67l70.51 -73.97c0.29,-0.31 0.77,-0.32 1.07,-0.03 0.26,0.24 0.31,0.62 0.15,0.92l-52.84 96.35zm-17.15 6.88c6.07,0.36 12.84,-2.19 15.81,-7.61l50.04 -91.25 -66.49 69.76c-8.97,9.4 -11.51,16.49 -10.5,21.31 0.51,2.42 1.94,4.27 3.89,5.56 2,1.32 4.55,2.07 7.25,2.23z"/>
  <path class="fil6" d="M363.98 285.86c-4.82,17.51 -46.72,18.77 -21.99,-19.37l47.51 -73.23 -25.52 92.6z"/>
  <path class="fil8" d="M364.7 286.1c-1.83,6.56 -8.58,10.94 -15.31,12.01 -3.14,0.5 -6.29,0.29 -8.94,-0.75 -2.71,-1.06 -4.91,-2.98 -6.08,-5.86 -2.08,-5.16 -0.8,-13.42 6.99,-25.42l47.5 -73.23c0.23,-0.35 0.7,-0.45 1.05,-0.23 0.29,0.19 0.41,0.53 0.32,0.84l-25.53 92.64zm-15.55 10.51c6.22,-0.99 12.44,-4.97 14.09,-10.93l24.22 -87.88 -44.83 69.11c-7.47,11.51 -8.77,19.28 -6.85,24.02 1,2.46 2.89,4.1 5.22,5.01 2.4,0.94 5.27,1.13 8.15,0.67z"/>
  <path class="fil6" d="M397.79 283.25c1.62,17.61 -48.94,23.24 -37.83,-7.71l29.54 -82.28 8.29 89.99z"/>
  <path class="fil8" d="M398.54 283.18c0.56,6.05 -4.51,10.74 -11.28,13.22 -4.21,1.54 -9.09,2.24 -13.64,1.88 -4.6,-0.37 -8.9,-1.83 -11.88,-4.59 -4,-3.7 -5.63,-9.67 -2.5,-18.4l29.55 -82.29c0.14,-0.39 0.57,-0.59 0.97,-0.45 0.28,0.1 0.47,0.36 0.5,0.64l8.28 89.99zm-11.81 11.79c6.16,-2.26 10.78,-6.41 10.3,-11.65l-7.97 -86.58 -28.39 79.06c-2.88,8.05 -1.47,13.48 2.1,16.78 2.71,2.51 6.68,3.84 10.97,4.18 4.33,0.35 8.98,-0.32 12.99,-1.79z"/>
  <path class="fil6" d="M638.75 293.77c39.29,15.84 38.44,-21.91 20.11,-26.92l-269.36 -73.59 249.25 100.51z"/>
  <path class="fil8" d="M639.04 293.07c13.13,5.29 21.62,4.51 26.38,1 2.06,-1.52 3.42,-3.56 4.16,-5.85 0.75,-2.3 0.87,-4.85 0.43,-7.36 -1.03,-5.92 -5.15,-11.59 -11.35,-13.28l-256.81 -70.16 237.19 95.65zm27.29 2.22c-5.15,3.8 -14.15,4.71 -27.86,-0.81l-249.25 -100.51c-0.36,-0.15 -0.55,-0.53 -0.45,-0.91 0.11,-0.4 0.53,-0.64 0.93,-0.53l269.36 73.59c6.82,1.86 11.33,8.04 12.45,14.47 0.48,2.75 0.35,5.56 -0.48,8.1 -0.83,2.57 -2.37,4.88 -4.7,6.6z"/>
  <path class="fil6" d="M610.62 293.77c34.85,15.84 34.1,-21.91 17.84,-26.92l-238.96 -73.59 221.12 100.51z"/>
  <path class="fil8" d="M610.93 293.08c11.04,5.02 18.35,4.56 22.64,1.5 1.98,-1.41 3.32,-3.4 4.1,-5.65 0.78,-2.29 0.99,-4.87 0.69,-7.42 -0.74,-6.15 -4.44,-12.18 -10.13,-13.94l-227.6 -70.09 210.3 95.6zm23.52 2.73c-4.7,3.36 -12.52,3.94 -24.14,-1.34l-221.12 -100.52c-0.35,-0.15 -0.53,-0.54 -0.42,-0.91 0.12,-0.4 0.55,-0.63 0.95,-0.51l238.96 73.59c6.3,1.94 10.39,8.52 11.19,15.21 0.33,2.78 0.1,5.58 -0.76,8.09 -0.88,2.54 -2.4,4.78 -4.66,6.39z"/>
  <path class="fil6" d="M576.7 292.97c29.56,15.74 54.5,-12.75 15.1,-26.93l-202.3 -72.78 187.2 99.71z"/>
  <path class="fil8" d="M577.06 292.3c11.04,5.88 21.39,5.46 27.8,1.94 2.48,-1.37 4.37,-3.19 5.45,-5.29 1.07,-2.06 1.37,-4.4 0.72,-6.83l-0.01 -0.03c-1.44,-5.26 -7.31,-10.96 -19.47,-15.33l-192.41 -69.22 177.92 94.76zm28.53 3.27c-6.8,3.74 -17.7,4.22 -29.24,-1.93l-187.17 -99.69c-0.35,-0.16 -0.53,-0.57 -0.39,-0.95 0.14,-0.39 0.57,-0.59 0.97,-0.45l202.3 72.78c12.68,4.56 18.86,10.65 20.42,16.35l0.02 0.04c0.76,2.81 0.41,5.53 -0.84,7.93 -1.22,2.37 -3.32,4.41 -6.07,5.92z"/>
  <path class="fil6" d="M550.82 292.82c25.49,15.73 50.24,-11.41 13.01,-26.92l-174.33 -72.64 161.32 99.56z"/>
  <path class="fil8" d="M551.22 292.18c9.17,5.65 18.21,5.63 24.13,2.59 2.39,-1.23 4.27,-2.96 5.42,-5 1.13,-2.01 1.56,-4.34 1.07,-6.8 -1.07,-5.4 -6.48,-11.45 -18.3,-16.37l-165.48 -68.95 153.16 94.53zm24.82 3.94c-6.34,3.25 -15.95,3.32 -25.62,-2.65l-161.29 -99.54c-0.33,-0.19 -0.48,-0.6 -0.33,-0.96 0.16,-0.39 0.6,-0.57 0.99,-0.41l174.33 72.64c12.36,5.14 18.06,11.63 19.22,17.48 0.56,2.83 0.07,5.52 -1.24,7.84 -1.29,2.29 -3.39,4.23 -6.06,5.6z"/>
  <path class="fil6" d="M528.06 292.96c21.9,15.76 40.4,-12.71 11.17,-26.92l-149.73 -72.78 138.56 99.7z"/>
  <path class="fil8" d="M528.5 292.35c7.07,5.08 13.73,5.41 18.41,3.08 2.15,-1.07 3.89,-2.71 5.05,-4.71 1.16,-1.99 1.73,-4.35 1.57,-6.86 -0.36,-5.74 -4.61,-12.27 -14.63,-17.14l-141.78 -68.91 131.38 94.54zm19.09 4.44c-5.14,2.56 -12.38,2.25 -19.97,-3.21l-138.53 -99.68c-0.32,-0.2 -0.44,-0.62 -0.27,-0.97 0.18,-0.38 0.63,-0.53 1.01,-0.35l149.74 72.78c10.59,5.14 15.08,12.18 15.48,18.41 0.18,2.81 -0.47,5.47 -1.77,7.71 -1.31,2.25 -3.27,4.11 -5.69,5.31z"/>
  <path class="fil6" d="M502.17 293.93c14.06,12.56 37.97,-9.43 9.09,-26.92l-121.76 -73.75 112.67 100.67z"/>
  <path class="fil8" d="M502.68 293.36c4.42,3.95 9.86,4.29 14.15,2.39l0.06 -0.02c2.02,-0.92 3.8,-2.33 5.08,-4.11l0.03 -0.04c1.27,-1.77 2.05,-3.9 2.11,-6.24 0.14,-5.3 -3.41,-11.73 -13.24,-17.68l-114.75 -69.5 106.56 95.2zm14.77 3.78c-4.8,2.13 -10.87,1.75 -15.78,-2.65l-112.66 -100.65c-0.28,-0.23 -0.36,-0.65 -0.16,-0.97 0.22,-0.36 0.69,-0.47 1.04,-0.26l121.76 73.75c10.39,6.29 14.13,13.22 13.98,19.02 -0.07,2.66 -0.96,5.08 -2.39,7.09l-0.04 0.04c-1.43,1.99 -3.42,3.58 -5.69,4.6l-0.06 0.03z"/>
  <path class="fil6" d="M468.92 290.73c12.48,15.32 51.18,4.27 15.67,-23.4l-95.09 -74.07 79.42 97.47z"/>
  <path class="fil8" d="M469.51 290.25c4.57,5.61 12.83,7.53 19.4,6.3 2.69,-0.51 5.08,-1.54 6.8,-3.06 1.66,-1.47 2.71,-3.43 2.75,-5.82 0.1,-4.84 -3.76,-11.49 -14.34,-19.74l-89.79 -69.94 75.18 92.26zm19.68 7.79c-7.04,1.32 -15.92,-0.77 -20.86,-6.83l-79.4 -97.44c-0.24,-0.27 -0.26,-0.68 -0.03,-0.98 0.26,-0.33 0.74,-0.39 1.07,-0.13l95.08 74.07c11.02,8.59 15.04,15.69 14.93,20.97 -0.06,2.85 -1.29,5.18 -3.27,6.93 -1.93,1.71 -4.57,2.86 -7.52,3.41z"/>
  <path class="fil6" d="M442.34 289.62c8.6,15.68 47.11,8.5 17.67,-22.39l-70.51 -73.97 52.84 96.36z"/>
  <path class="fil8" d="M443.01 289.25c2.97,5.42 9.74,7.97 15.81,7.61 2.7,-0.16 5.25,-0.91 7.25,-2.23 1.95,-1.29 3.38,-3.14 3.89,-5.56 1.01,-4.82 -1.53,-11.91 -10.5,-21.31l-66.49 -69.76 50.04 91.25zm15.9 9.12c-6.59,0.4 -13.96,-2.42 -17.24,-8.39l-52.84 -96.35c-0.16,-0.3 -0.11,-0.68 0.15,-0.92 0.3,-0.29 0.78,-0.28 1.07,0.03l70.51 73.97c9.37,9.83 11.99,17.4 10.88,22.67 -0.59,2.84 -2.26,5.02 -4.53,6.52 -2.23,1.47 -5.04,2.3 -8,2.47z"/>
  <path class="fil6" d="M415.02 285.86c4.82,17.51 46.72,18.77 21.99,-19.37l-47.51 -73.23 25.52 92.6z"/>
  <path class="fil8" d="M415.76 285.68c1.65,5.96 7.87,9.94 14.09,10.93 2.88,0.46 5.75,0.27 8.15,-0.67 2.33,-0.91 4.22,-2.55 5.22,-5.01 1.92,-4.74 0.62,-12.51 -6.85,-24.02l-44.83 -69.11 24.22 87.88zm13.85 12.43c-6.73,-1.07 -13.48,-5.45 -15.31,-12.01l-25.53 -92.64c-0.09,-0.31 0.03,-0.65 0.32,-0.84 0.35,-0.22 0.82,-0.12 1.05,0.23l47.5 73.23c7.79,12 9.07,20.26 6.99,25.42 -1.17,2.88 -3.37,4.8 -6.08,5.86 -2.65,1.04 -5.8,1.25 -8.94,0.75z"/>
  <path class="fil6" d="M381.21 283.25c-1.62,17.61 48.94,23.24 37.83,-7.71l-29.54 -82.28 -8.29 89.99z"/>
  <path class="fil8" d="M381.97 283.32c-0.48,5.24 4.14,9.39 10.3,11.65 4.01,1.47 8.66,2.14 12.99,1.79 4.29,-0.34 8.26,-1.67 10.97,-4.18 3.57,-3.3 4.98,-8.73 2.1,-16.78l-28.39 -79.06 -7.97 86.58zm9.77 13.08c-6.77,-2.48 -11.84,-7.17 -11.28,-13.22l8.28 -89.99c0.03,-0.28 0.22,-0.54 0.5,-0.64 0.4,-0.14 0.83,0.06 0.97,0.45l29.55 82.29c3.13,8.73 1.5,14.7 -2.5,18.4 -2.98,2.76 -7.28,4.22 -11.88,4.59 -4.55,0.36 -9.43,-0.34 -13.64,-1.88z"/>
  <path class="fil6" d="M381.21 283.25c-0.45,4.89 3.13,8.85 8.29,11.37 5.16,-2.52 8.74,-6.48 8.29,-11.37l-8.29 -89.99 -8.29 89.99z"/>
  <path class="fil8" d="M381.97 283.32c-0.2,2.13 0.45,4.08 1.69,5.79 1.34,1.84 3.39,3.42 5.84,4.66 2.45,-1.24 4.5,-2.82 5.84,-4.66 1.24,-1.71 1.89,-3.66 1.69,-5.79l-7.53 -81.78 -7.53 81.78zm0.47 6.68c-1.46,-2 -2.22,-4.29 -1.98,-6.82l8.28 -89.99c0.04,-0.36 0.32,-0.65 0.69,-0.68 0.42,-0.04 0.79,0.27 0.83,0.68l8.28 89.99c0.24,2.53 -0.52,4.82 -1.98,6.82 -1.56,2.14 -3.92,3.94 -6.73,5.3 -0.2,0.1 -0.45,0.11 -0.66,0 -2.81,-1.36 -5.17,-3.16 -6.73,-5.3z"/>
  <path class="fil6" d="M389.5 178.42l8.18 9.9 8.19 9.89c0,4.72 -7.33,8.56 -16.37,8.56 -9.04,0 -16.37,-3.84 -16.37,-8.56l8.19 -9.89 8.18 -9.9z"/>
  <path class="fil8" d="M390.09 177.94l16.54 19.99 0 0.28c0,2.66 -1.99,5.04 -5.2,6.72 -3.07,1.6 -7.29,2.6 -11.93,2.6 -4.64,0 -8.86,-1 -11.93,-2.6 -3.21,-1.68 -5.2,-4.06 -5.2,-6.72l0 -0.28 17.13 -20.7 0.59 0.71zm7.01 10.86l-7.6 -9.18 -15.6 18.85c0.14,1.96 1.78,3.76 4.37,5.12 2.86,1.49 6.83,2.41 11.23,2.41 4.4,0 8.37,-0.92 11.23,-2.41 2.59,-1.36 4.23,-3.16 4.37,-5.12l-8 -9.67z"/>
  <path class="fil6" d="M389.5 312.12c-21.97,12.87 -32.26,27.68 -30.86,44.44 -11.37,-5.41 -15.28,-13.23 -11.73,-23.45 -16.1,6.1 -17.95,19.68 -5.55,40.73 -25.24,15.24 -32.64,-26.11 -68.52,-18.51 11.57,33.59 -3.46,39.2 -21.6,45.24 -15.4,5.13 -36.96,-5.73 -27.77,-24.87 -15.02,-1.23 -18.39,22.01 -36.81,33.27 -20.63,12.61 -38.4,8.05 -37.88,-14.76 -26.06,10.57 -28.57,45.37 6.79,62.05 45.75,21.58 141.34,10.81 190.72,-5.59l43.21 0 43.21 0c49.38,16.4 144.97,27.17 190.72,5.59 35.36,-16.68 32.85,-51.48 6.79,-62.05 0.52,22.81 -17.25,27.37 -37.88,14.76 -18.42,-11.26 -21.79,-34.5 -36.81,-33.27 9.19,19.14 -12.37,30 -27.77,24.87 -18.14,-6.04 -33.17,-11.65 -21.6,-45.24 -35.88,-7.6 -43.28,33.75 -68.52,18.51 12.4,-21.05 10.55,-34.63 -5.55,-40.73 3.55,10.22 -0.36,18.04 -11.73,23.45 1.4,-16.76 -8.89,-31.57 -30.86,-44.44z"/>
  <path class="fil8" d="M389.5 313.44c-10.54,6.25 -18.3,12.95 -23.26,20.09 -4.98,7.18 -7.14,14.83 -6.46,22.94l0.16 1.97 -1.79 -0.85c-5.91,-2.81 -9.91,-6.3 -11.99,-10.44 -1.78,-3.57 -2.13,-7.6 -1.02,-12.06 -0.82,0.37 -1.59,0.78 -2.31,1.2 -4.29,2.53 -6.95,5.9 -7.95,10.12 -1.03,4.3 -0.38,9.52 1.95,15.66 1.31,3.45 3.15,7.19 5.51,11.2l0.57 0.97 -0.96 0.58c-13.23,7.99 -21.66,1.34 -31.42,-6.36 -9.1,-7.17 -19.43,-15.32 -36.19,-12.27 5.46,16.46 4.44,26.27 -0.23,32.76 -4.79,6.64 -13.26,9.62 -22.51,12.7 -6.66,2.22 -14.42,1.57 -20.54,-1.36 -2.36,-1.13 -4.48,-2.61 -6.21,-4.39 -1.76,-1.8 -3.11,-3.92 -3.91,-6.33 -1.22,-3.66 -1.15,-7.96 0.79,-12.76 -6.67,0.37 -10.96,6.49 -16.02,13.71 -4.68,6.68 -9.99,14.25 -18.45,19.42 -7.9,4.83 -15.43,7.2 -21.75,7.06 -3.13,-0.07 -5.98,-0.76 -8.43,-2.06 -2.48,-1.32 -4.55,-3.26 -6.13,-5.83 -2.03,-3.33 -3.21,-7.72 -3.31,-13.16 -6.96,3.21 -12.01,8.29 -14.82,14.24 -1.6,3.39 -2.48,7.08 -2.56,10.87 -0.09,3.8 0.62,7.72 2.18,11.56 3.46,8.53 11.11,16.71 23.62,22.61 20.37,9.61 50.78,12.75 82.57,11.82 39.08,-1.15 80.19,-8.45 107.31,-17.46l0.19 -0.06 86.74 0 0.19 0.06c27.12,9.01 68.23,16.31 107.31,17.46 31.79,0.93 62.2,-2.21 82.57,-11.82 12.51,-5.9 20.16,-14.09 23.62,-22.61 1.56,-3.84 2.27,-7.76 2.18,-11.56 -0.08,-3.79 -0.96,-7.48 -2.56,-10.87 -2.81,-5.95 -7.86,-11.03 -14.82,-14.24 -0.1,5.44 -1.28,9.82 -3.31,13.15 -1.57,2.57 -3.65,4.51 -6.12,5.83 -2.46,1.31 -5.3,2 -8.44,2.07 -6.32,0.14 -13.85,-2.23 -21.75,-7.06 -8.46,-5.17 -13.77,-12.74 -18.45,-19.42 -5.06,-7.22 -9.35,-13.34 -16.02,-13.71 1.94,4.8 2.01,9.1 0.79,12.76 -0.8,2.41 -2.15,4.53 -3.91,6.33 -1.73,1.78 -3.85,3.26 -6.21,4.39 -6.12,2.93 -13.88,3.58 -20.54,1.36 -9.26,-3.08 -17.72,-6.06 -22.51,-12.7 -4.67,-6.49 -5.69,-16.3 -0.23,-32.76 -16.76,-3.05 -27.09,5.1 -36.19,12.27 -9.76,7.7 -18.19,14.35 -31.42,6.36l-0.96 -0.58 0.57 -0.97c2.36,-4.01 4.2,-7.75 5.51,-11.2 2.33,-6.14 2.98,-11.36 1.95,-15.66 -1,-4.22 -3.66,-7.59 -7.95,-10.12 -0.72,-0.42 -1.49,-0.83 -2.31,-1.2 1.11,4.46 0.76,8.49 -1.02,12.06 -2.08,4.14 -6.08,7.63 -11.99,10.44l-1.79 0.85 0.16 -1.97c0.68,-8.11 -1.48,-15.76 -6.46,-22.94 -4.96,-7.14 -12.72,-13.84 -23.26,-20.09zm-25.13 18.79c5.23,-7.54 13.42,-14.57 24.55,-21.09l0.58 -0.34 0.58 0.34c11.13,6.52 19.32,13.55 24.55,21.09 4.89,7.04 7.22,14.51 6.98,22.42 4.49,-2.41 7.56,-5.25 9.19,-8.52 1.81,-3.62 1.88,-7.84 0.21,-12.65l-0.79 -2.3 2.27 0.86c1.77,0.67 3.38,1.43 4.83,2.29 4.85,2.85 7.86,6.71 9.02,11.55 1.13,4.75 0.46,10.42 -2.04,17 -1.24,3.28 -2.94,6.8 -5.09,10.55 11.33,6.26 19.01,0.21 27.85,-6.76 9.72,-7.67 20.78,-16.39 39.33,-12.46l1.27 0.27 -0.42 1.22c-5.65,16.38 -4.87,25.86 -0.5,31.92 4.37,6.06 12.49,8.91 21.38,11.87 6.1,2.03 13.22,1.44 18.83,-1.25 2.13,-1.02 4.03,-2.34 5.57,-3.93 1.52,-1.56 2.7,-3.39 3.38,-5.45 1.18,-3.54 0.94,-7.81 -1.39,-12.67l-0.72 -1.5 1.65 -0.13c8.92,-0.73 13.84,6.27 19.71,14.65 4.55,6.49 9.72,13.86 17.78,18.79 7.53,4.59 14.62,6.85 20.51,6.72 2.77,-0.06 5.27,-0.66 7.41,-1.8 2.12,-1.12 3.9,-2.79 5.25,-5 2.03,-3.32 3.11,-7.88 2.98,-13.69l-0.04 -1.73 1.61 0.65c8.33,3.38 14.34,9.17 17.59,16.06 1.74,3.68 2.69,7.68 2.78,11.8 0.09,4.11 -0.67,8.34 -2.34,12.47 -3.66,9.02 -11.69,17.65 -24.76,23.81 -20.72,9.78 -51.51,12.97 -83.61,12.03 -39.21,-1.15 -80.47,-8.47 -107.77,-17.51l-86.08 0c-27.3,9.04 -68.56,16.36 -107.77,17.51 -32.1,0.94 -62.89,-2.25 -83.61,-12.03 -13.07,-6.16 -21.1,-14.79 -24.76,-23.81 -1.67,-4.13 -2.43,-8.36 -2.34,-12.47 0.09,-4.12 1.04,-8.12 2.78,-11.8 3.25,-6.89 9.26,-12.68 17.59,-16.06l1.61 -0.65 -0.04 1.73c-0.13,5.81 0.95,10.37 2.98,13.69 1.35,2.2 3.13,3.87 5.25,5 2.14,1.14 4.64,1.74 7.41,1.8 5.89,0.13 12.98,-2.13 20.51,-6.72 8.06,-4.93 13.23,-12.3 17.78,-18.79 5.87,-8.38 10.79,-15.38 19.71,-14.65l1.65 0.13 -0.72 1.5c-2.33,4.86 -2.57,9.13 -1.39,12.67 0.68,2.06 1.86,3.89 3.38,5.45 1.54,1.59 3.45,2.91 5.57,3.93 5.61,2.69 12.73,3.28 18.83,1.25 8.89,-2.96 17.01,-5.81 21.38,-11.87 4.37,-6.06 5.14,-15.54 -0.5,-31.92l-0.42 -1.22 1.27 -0.27c18.55,-3.93 29.61,4.79 39.33,12.46 8.84,6.97 16.52,13.02 27.85,6.76 -2.15,-3.75 -3.85,-7.27 -5.09,-10.55 -2.5,-6.58 -3.17,-12.25 -2.04,-17 1.16,-4.84 4.17,-8.7 9.02,-11.55 1.45,-0.86 3.06,-1.62 4.83,-2.29l2.28 -0.86 -0.8 2.3c-1.67,4.81 -1.6,9.03 0.21,12.65 1.63,3.27 4.7,6.11 9.19,8.52 -0.24,-7.91 2.09,-15.38 6.98,-22.42z"/>
  <path class="fil6" d="M341.97 357.18c9.38,19.71 25.22,35.96 47.53,48.76 22.31,-12.8 38.15,-29.05 47.53,-48.76 -7.45,5.19 -14.65,7.87 -21.61,8.02 -0.47,-18.61 -9.11,-32.19 -25.92,-40.73 -16.81,8.54 -25.45,22.12 -25.92,40.73 -6.96,-0.15 -14.16,-2.83 -21.61,-8.02z"/>
  <path class="fil8" d="M344.88 360.42c4.39,8.29 10,15.94 16.82,22.94 7.71,7.91 16.98,15 27.8,21.26 10.82,-6.26 20.09,-13.35 27.8,-21.26 6.82,-7 12.43,-14.65 16.82,-22.95 -2.58,1.55 -5.14,2.8 -7.68,3.74 -3.72,1.38 -7.39,2.11 -10.99,2.19l-1.13 0.03 -0.04 -1.14c-0.23,-9.1 -2.45,-16.95 -6.65,-23.56 -4.12,-6.47 -10.17,-11.79 -18.13,-15.92 -7.96,4.13 -14.01,9.45 -18.13,15.92 -4.2,6.61 -6.42,14.46 -6.65,23.56l-0.03 1.14 -1.14 -0.03c-3.61,-0.08 -7.28,-0.81 -10.99,-2.19 -2.54,-0.94 -5.1,-2.19 -7.68,-3.73zm15.19 24.53c-8.01,-8.22 -14.39,-17.32 -19.13,-27.29l-1.85 -3.88 3.54 2.46c3.63,2.55 7.21,4.47 10.72,5.78 3.1,1.14 6.14,1.81 9.13,2 0.39,-9.03 2.72,-16.89 6.97,-23.57 4.44,-6.97 10.95,-12.64 19.54,-17l0.51 -0.26 0.51 0.26c8.59,4.36 15.1,10.03 19.54,17 4.25,6.68 6.58,14.54 6.97,23.57 2.99,-0.19 6.04,-0.86 9.13,-2 3.51,-1.31 7.08,-3.23 10.72,-5.78l3.54 -2.46 -1.85 3.88c-4.74,9.97 -11.12,19.07 -19.13,27.29 -8,8.2 -17.62,15.53 -28.86,21.98l-0.57 0.33 -0.57 -0.33c-11.24,-6.45 -20.86,-13.78 -28.86,-21.98z"/>
  <path class="fil6" d="M346.29 379.4c9.78,13.27 22.54,25.81 38.27,37.65 -14.71,1 -26.24,5.11 -34.56,12.34 -2.35,-17.9 -9.96,-30.86 -22.84,-38.88 5.25,-5.41 11.63,-9.11 19.13,-11.11z"/>
  <path class="fil8" d="M347.22 378.73c4.85,6.58 10.45,12.99 16.78,19.22 6.34,6.24 13.42,12.3 21.25,18.19l2.45 1.84 -3.06 0.21c-7.25,0.49 -13.71,1.75 -19.37,3.77 -5.63,2.01 -10.48,4.78 -14.53,8.3l-1.6 1.39 -0.27 -2.11c-1.15,-8.79 -3.6,-16.37 -7.32,-22.72 -3.71,-6.31 -8.71,-11.43 -14.99,-15.34l-1.2 -0.75 0.98 -1.02c2.7,-2.78 5.69,-5.12 8.97,-7.02 3.27,-1.9 6.84,-3.37 10.69,-4.39l0.75 -0.2 0.47 0.63zm15.18 20.84c-6.23,-6.12 -11.75,-12.41 -16.56,-18.86 -3.37,0.95 -6.5,2.27 -9.39,3.95 -2.7,1.57 -5.2,3.45 -7.48,5.65 6.03,4 10.88,9.12 14.54,15.36 3.59,6.12 6.04,13.3 7.33,21.55 3.93,-3.09 8.48,-5.56 13.66,-7.41 5.07,-1.81 10.74,-3.03 17.02,-3.65 -6.98,-5.39 -13.36,-10.92 -19.12,-16.59z"/>
  <path class="fil6" d="M143.23 412.73c-7.73,21.18 14.49,48.69 84.56,48.36 36.36,-0.17 73.55,-9.7 107.36,-11.33 7.94,-42.53 -12.49,-68.84 -49.96,-83.32 3.76,49.93 -74.01,61.24 -70.37,22.83 -15.95,8.61 -11.23,28.22 -38.39,34.22 -12.67,2.79 -23.3,0.73 -33.2,-10.76z"/>
  <path class="fil8" d="M143.71 414.97c-0.54,1.96 -0.81,3.97 -0.8,5.99 0.02,5.7 2.28,11.56 7.11,16.94 4.9,5.47 12.44,10.45 22.96,14.29 13.32,4.86 31.36,7.88 54.81,7.77 20.07,-0.1 40.48,-3.07 60.41,-5.98 15.72,-2.29 31.15,-4.54 45.99,-5.31 3.52,-19.78 0.79,-35.94 -7.01,-48.96 -8.3,-13.84 -22.36,-24.18 -40.75,-31.56 0.75,19.9 -11.25,33.58 -25.69,40.34 -5.97,2.79 -12.36,4.4 -18.43,4.78 -6.11,0.37 -11.92,-0.5 -16.7,-2.67 -7.34,-3.35 -12.23,-9.7 -12.05,-19.24 -4.98,3.3 -7.68,7.94 -10.45,12.71 -4.78,8.24 -9.78,16.85 -26.43,20.53 -6.52,1.44 -12.53,1.62 -18.21,-0.04 -5.19,-1.52 -10.07,-4.57 -14.76,-9.59zm-3.08 6c-0.02,-2.93 0.51,-5.84 1.52,-8.63l0.67 -1.83 1.27 1.47c4.79,5.57 9.75,8.85 15.02,10.39 5.28,1.55 10.92,1.36 17.08,0.01 15.67,-3.46 20.41,-11.64 24.95,-19.45 3.25,-5.6 6.4,-11.03 13.15,-14.66l1.87 -1.01 -0.2 2.12c-0.92,9.63 3.58,15.95 10.6,19.14 4.42,2.02 9.87,2.82 15.62,2.47 5.79,-0.36 11.89,-1.89 17.6,-4.56 14.1,-6.6 25.76,-20.15 24.27,-39.91l-0.13 -1.8 1.68 0.65c19.67,7.6 34.71,18.45 43.54,33.17 8.2,13.68 11,30.67 7.13,51.43l-0.17 0.89 -0.9 0.04c-14.98,0.72 -30.68,3.01 -46.68,5.34 -19.99,2.91 -40.46,5.9 -60.72,5.99 -23.74,0.11 -42.06,-2.96 -55.59,-7.9 -10.9,-3.97 -18.75,-9.17 -23.89,-14.91 -5.22,-5.82 -7.66,-12.2 -7.69,-18.45z"/>
  <path class="fil6" d="M262.97 435.57l0 -9.88c11.7,-5.32 20.95,-11.49 27.77,-18.52 6.15,10.24 13.76,18.68 22.84,25.31 -20.57,1.22 -37.44,2.24 -50.61,3.09z"/>
  <path class="fil8" d="M261.82 435.57l0 -10.61 0.68 -0.31c5.8,-2.64 10.98,-5.48 15.55,-8.52 4.56,-3.04 8.52,-6.3 11.88,-9.75l1.03 -1.06 0.76 1.27c3.03,5.04 6.43,9.66 10.19,13.82 3.76,4.16 7.87,7.88 12.34,11.15l2.57 1.87 -31.26 1.87 -23.74 1.48 0 -1.21zm2.29 -9.15l0 7.93 21.32 -1.33 25.01 -1.5c-3.66,-2.89 -7.07,-6.08 -10.23,-9.58 -3.53,-3.92 -6.77,-8.23 -9.68,-12.93 -3.24,3.18 -6.98,6.19 -11.21,9.01 -4.51,3.01 -9.59,5.81 -15.21,8.4z"/>
  <path class="fil6" d="M175.96 445.73c29.46,-1.95 41.55,12.21 58,5.88 -13.89,-6.63 -22.74,-16.92 -26.54,-30.86 -10.63,2.96 -7.19,8.65 -23.88,9.51 -6,0.31 -10.6,10.56 -7.58,15.47z"/>
  <path class="fil8" d="M176.63 444.54c14.31,-0.82 24.5,2.09 33.12,4.56 7.79,2.23 14.25,4.08 21.22,2.28 -5.97,-3.18 -10.95,-7.09 -14.93,-11.72 -4.29,-4.99 -7.43,-10.82 -9.4,-17.48 -3.3,1.08 -5.03,2.48 -6.7,3.84 -3.05,2.48 -5.97,4.85 -16.35,5.38 -0.83,0.04 -1.65,0.34 -2.41,0.8 -1.5,0.93 -2.8,2.54 -3.7,4.39 -0.91,1.86 -1.42,3.93 -1.32,5.77 0.04,0.79 0.19,1.53 0.47,2.18zm32.49 6.76c-8.59,-2.46 -18.78,-5.38 -33.08,-4.44l-0.68 0.05 -0.37 -0.59c-0.68,-1.11 -1.04,-2.43 -1.11,-3.84 -0.11,-2.22 0.48,-4.7 1.55,-6.89 1.08,-2.21 2.68,-4.17 4.56,-5.33 1.07,-0.66 2.25,-1.07 3.49,-1.14 9.63,-0.49 12.26,-2.63 15.02,-4.87 2.03,-1.64 4.13,-3.35 8.62,-4.6l1.1 -0.3 0.3 1.1c1.85,6.8 4.94,12.71 9.25,17.73 4.32,5.02 9.88,9.16 16.68,12.41l2.38 1.14 -2.47 0.95c-8.71,3.35 -16.1,1.23 -25.24,-1.38z"/>
  <path class="fil6" d="M389.5 443.82l-39.5 0c9.31,-8.95 22.47,-14.19 39.5,-15.74 17.03,1.55 30.19,6.79 39.5,15.74l-39.5 0z"/>
  <path class="fil8" d="M389.5 444.97l-42.33 0 2.04 -1.97c4.75,-4.57 10.5,-8.2 17.23,-10.88 6.68,-2.67 14.34,-4.39 22.96,-5.17l0.2 0c8.62,0.78 16.28,2.5 22.96,5.17 6.73,2.68 12.47,6.31 17.23,10.88l2.04 1.97 -42.33 0zm-36.53 -2.29l73.06 0c-4.09,-3.46 -8.86,-6.28 -14.3,-8.45 -6.46,-2.57 -13.87,-4.24 -22.23,-5.01 -8.36,0.77 -15.77,2.44 -22.23,5.01 -5.44,2.17 -10.21,4.99 -14.3,8.45z"/>
  <path class="fil6" d="M432.71 379.4c-9.78,13.27 -22.54,25.81 -38.27,37.65 14.71,1 26.24,5.11 34.56,12.34 2.35,-17.9 9.96,-30.86 22.84,-38.88 -5.25,-5.41 -11.63,-9.11 -19.13,-11.11z"/>
  <path class="fil8" d="M433.16 380.71c-4.82,6.45 -10.33,12.74 -16.56,18.86 -5.76,5.67 -12.14,11.2 -19.12,16.59 6.28,0.62 11.95,1.84 17.02,3.65 5.18,1.85 9.73,4.32 13.66,7.41 1.29,-8.25 3.74,-15.43 7.33,-21.55 3.66,-6.24 8.51,-11.36 14.54,-15.36 -2.28,-2.2 -4.78,-4.08 -7.48,-5.65 -2.89,-1.68 -6.02,-3 -9.39,-3.95zm-18.16 17.24c6.33,-6.23 11.93,-12.64 16.78,-19.22l0.47 -0.63 0.75 0.2c3.85,1.02 7.42,2.49 10.69,4.39 3.28,1.9 6.27,4.24 8.97,7.02l0.98 1.02 -1.2 0.75c-6.28,3.91 -11.28,9.03 -14.99,15.34 -3.72,6.35 -6.17,13.93 -7.32,22.72l-0.27 2.11 -1.6 -1.39c-4.05,-3.52 -8.9,-6.29 -14.53,-8.3 -5.66,-2.02 -12.12,-3.28 -19.37,-3.77l-3.06 -0.21 2.45 -1.84c7.83,-5.89 14.91,-11.95 21.25,-18.19z"/>
  <path class="fil6" d="M635.77 412.73c7.73,21.18 -14.49,48.69 -84.56,48.36 -36.36,-0.17 -73.55,-9.7 -107.36,-11.33 -7.94,-42.53 12.49,-68.84 49.96,-83.32 -3.76,49.93 74.01,61.24 70.37,22.83 15.95,8.61 11.23,28.22 38.39,34.22 12.67,2.79 23.3,0.73 33.2,-10.76z"/>
  <path class="fil8" d="M636.85 412.34c1.01,2.79 1.54,5.7 1.52,8.63 -0.03,6.25 -2.47,12.63 -7.69,18.45 -5.14,5.74 -12.99,10.94 -23.89,14.91 -13.53,4.94 -31.85,8.01 -55.59,7.9 -20.26,-0.09 -40.73,-3.08 -60.72,-5.99 -16,-2.33 -31.7,-4.62 -46.68,-5.34l-0.9 -0.04 -0.17 -0.89c-3.87,-20.76 -1.07,-37.75 7.13,-51.43 8.83,-14.72 23.87,-25.57 43.54,-33.17l1.68 -0.65 -0.13 1.8c-1.49,19.76 10.17,33.31 24.27,39.91 5.71,2.67 11.81,4.2 17.6,4.56 5.75,0.35 11.2,-0.45 15.62,-2.47 7.02,-3.19 11.52,-9.51 10.6,-19.14l-0.2 -2.12 1.87 1.01c6.75,3.63 9.9,9.06 13.15,14.66 4.54,7.81 9.28,15.99 24.95,19.45 6.16,1.35 11.8,1.54 17.08,-0.01 5.27,-1.54 10.23,-4.82 15.02,-10.39l1.27 -1.47 0.67 1.83zm-0.76 8.62c0.01,-2.02 -0.26,-4.03 -0.8,-5.99 -4.69,5.02 -9.57,8.07 -14.76,9.59 -5.68,1.66 -11.69,1.48 -18.21,0.04 -16.65,-3.68 -21.65,-12.29 -26.43,-20.53 -2.77,-4.77 -5.47,-9.41 -10.45,-12.71 0.18,9.54 -4.71,15.89 -12.05,19.24 -4.78,2.17 -10.59,3.04 -16.7,2.67 -6.07,-0.38 -12.46,-1.99 -18.43,-4.78 -14.44,-6.76 -26.44,-20.44 -25.69,-40.34 -18.39,7.38 -32.45,17.72 -40.75,31.56 -7.8,13.02 -10.53,29.18 -7.01,48.96 14.84,0.77 30.27,3.02 45.99,5.31 19.93,2.91 40.34,5.88 60.41,5.98 23.45,0.11 41.49,-2.91 54.81,-7.77 10.52,-3.84 18.06,-8.82 22.96,-14.29 4.83,-5.38 7.09,-11.24 7.11,-16.94z"/>
  <path class="fil6" d="M516.03 435.57l0 -9.88c-11.7,-5.32 -20.95,-11.49 -27.77,-18.52 -6.15,10.24 -13.76,18.68 -22.84,25.31 20.57,1.22 37.44,2.24 50.61,3.09z"/>
  <path class="fil8" d="M514.89 434.35l0 -7.93c-5.63,-2.59 -10.7,-5.39 -15.21,-8.4 -4.23,-2.82 -7.97,-5.83 -11.21,-9.01 -2.92,4.7 -6.15,9.01 -9.68,12.93 -3.16,3.5 -6.57,6.69 -10.23,9.58l25.01 1.5 21.32 1.33zm2.29 -8.66l0 11.09 -23.74 -1.48 -31.25 -1.87 2.56 -1.87c4.47,-3.27 8.59,-6.99 12.34,-11.15 3.76,-4.16 7.16,-8.77 10.19,-13.82l0.76 -1.27 1.03 1.06c3.36,3.45 7.32,6.71 11.88,9.75 4.57,3.04 9.75,5.88 15.55,8.52l0.68 0.31 0 0.73z"/>
  <path class="fil6" d="M603.04 445.73c-29.46,-1.95 -41.55,12.21 -58,5.88 13.89,-6.63 22.74,-16.92 26.54,-30.86 10.63,2.96 7.19,8.65 23.88,9.51 6,0.31 10.6,10.56 7.58,15.47z"/>
  <path class="fil8" d="M602.96 446.86c-14.3,-0.94 -24.49,1.98 -33.08,4.44 -9.14,2.61 -16.53,4.73 -25.24,1.38l-2.47 -0.95 2.38 -1.14c6.8,-3.25 12.36,-7.39 16.68,-12.41 4.31,-5.02 7.4,-10.93 9.25,-17.73l0.31 -1.1 1.09 0.3c4.49,1.25 6.59,2.96 8.62,4.6 2.76,2.24 5.39,4.38 15.02,4.87 1.24,0.07 2.42,0.48 3.49,1.14 1.88,1.16 3.48,3.12 4.56,5.33 1.07,2.19 1.66,4.67 1.55,6.89 -0.07,1.41 -0.43,2.73 -1.11,3.84l-0.36 0.59 -0.69 -0.05zm-33.71 2.24c8.62,-2.47 18.81,-5.38 33.12,-4.56 0.28,-0.65 0.43,-1.39 0.47,-2.18 0.1,-1.84 -0.41,-3.91 -1.32,-5.77 -0.9,-1.85 -2.2,-3.46 -3.7,-4.39 -0.76,-0.46 -1.58,-0.76 -2.41,-0.8 -10.38,-0.53 -13.3,-2.9 -16.35,-5.38 -1.67,-1.36 -3.4,-2.76 -6.7,-3.84 -1.97,6.66 -5.11,12.49 -9.4,17.48 -3.98,4.63 -8.96,8.54 -14.93,11.72 6.97,1.8 13.43,-0.05 21.22,-2.28z"/>
  <path class="fil5" d="M259.73 478.83c58.87,56.24 52.16,80.48 69.08,91.07 9.52,5.96 40.02,-12.44 51.78,-3.02 67.5,54.09 102.48,94.63 104.93,121.61 9.4,-7.94 18.92,-13.52 28.53,-16.75 -12.5,-29.83 -97.28,-94.13 -254.32,-192.91z"/>
  <path class="fil8" d="M270.76 487.58c28.82,29.48 38.75,49.27 45.42,62.58 4.41,8.78 7.35,14.64 13.43,18.45 3.74,2.34 12.01,0.15 20.87,-2.2 11.52,-3.06 24.01,-6.36 31.06,-0.71 33.82,27.1 59.51,50.82 77.06,71.16 16.53,19.15 25.89,35.39 28.07,48.71 4.06,-3.27 8.15,-6.11 12.27,-8.53 4.32,-2.54 8.67,-4.6 13.04,-6.18 -7.08,-14.74 -31.02,-37.57 -71.8,-68.51 -40.19,-30.48 -96.67,-68.74 -169.42,-114.77zm42.71 63.94c-7.3,-14.55 -18.54,-36.95 -54.79,-71.59l-10.89 -10.41 12.75 8.02c78.54,49.4 139.03,90.2 181.47,122.39 42.61,32.32 67.09,56.07 73.45,71.23l0.63 1.5 -1.56 0.52c-4.71,1.58 -9.39,3.74 -14.06,6.48 -4.66,2.74 -9.32,6.07 -13.97,9.99l-2.23 1.88 -0.26 -2.9c-1.2,-13.17 -10.43,-29.76 -27.71,-49.79 -17.42,-20.19 -42.98,-43.79 -76.66,-70.77 -5.85,-4.69 -17.57,-1.59 -28.39,1.28 -9.52,2.52 -18.39,4.88 -23.24,1.84 -6.81,-4.26 -9.91,-10.43 -14.54,-19.67z"/>
  <path class="fil5" d="M447.06 538.38l-104.83 75.05 -75.68 62.03 7.45 7.45 80.02 -62.65 96.14 -76.3c35.11,-16.24 63.02,-37.12 83.74,-62.65 -45.31,3.4 -74.25,22.42 -86.84,57.07z"/>
  <path class="fil8" d="M447.95 539.62l-104.83 75.05 -74.3 60.9 5.31 5.31 78.94 -61.81 96.29 -76.41 0.16 -0.08c17.47,-8.07 33.13,-17.3 47,-27.68 12.83,-9.6 24.13,-20.19 33.9,-31.76 -42.59,4.07 -69.91,22.66 -81.93,55.76l-0.16 0.45 -0.38 0.27zm-106.61 72.57l104.46 -74.79c12.89,-34.97 42.22,-54.17 87.99,-57.61l3.52 -0.26 -2.23 2.74c-10.43,12.86 -22.68,24.55 -36.74,35.06 -14,10.48 -29.8,19.79 -47.37,27.93l-96.01 76.19 -81.09 63.48 -9.58 -9.57c25.61,-21.01 51.76,-41.84 77.05,-63.17z"/>
  <path class="fil7" d="M450.16 543.96c31.17,-14.42 56.67,-32.5 76.5,-54.24 -43.76,15.37 -69.25,33.45 -76.5,54.24z"/>
  <ellipse class="fil6" cx="389.5" cy="573.23" rx="83.12" ry="73.31"/>
  <path class="fil7" d="M389.5 488.49c25.79,0 49.25,9.31 66.32,24.37 17.44,15.38 28.23,36.72 28.23,60.37 0,23.64 -10.79,44.98 -28.23,60.36 -17.07,15.06 -40.53,24.37 -66.32,24.37 -25.82,0 -49.28,-9.3 -66.32,-24.33l-0.69 -0.65c-17.03,-15.33 -27.54,-36.42 -27.54,-59.75 0,-23.65 10.79,-44.99 28.23,-60.37l0.02 -0.02 -0.02 -0.02c17.04,-15.03 40.5,-24.33 66.32,-24.33zm0 11.43c45.9,0 83.12,32.82 83.12,73.31 0,40.48 -37.22,73.3 -83.12,73.3 -45.91,0 -83.12,-32.82 -83.12,-73.3 0,-40.49 37.21,-73.31 83.12,-73.31z"/>
  <ellipse class="fil6" cx="389.5" cy="573.23" rx="18.9" ry="16.67"/>
  <path class="fil7" d="M389.5 548.93c7.1,0 13.61,2.61 18.38,6.81l0.02 -0.02c5.02,4.43 8.12,10.62 8.12,17.51 0,6.89 -3.1,13.07 -8.12,17.5l-0.55 0.44c-4.72,3.94 -11.01,6.35 -17.85,6.35 -7.1,0 -13.61,-2.6 -18.38,-6.81l-0.02 0.02c-5.02,-4.43 -8.12,-10.61 -8.12,-17.5 0,-6.9 3.1,-13.08 8.12,-17.51l0.55 -0.44c4.72,-3.93 11.01,-6.35 17.85,-6.35zm0 7.63c10.44,0 18.9,7.46 18.9,16.67 0,9.2 -8.46,16.67 -18.9,16.67 -10.44,0 -18.9,-7.47 -18.9,-16.67 0,-9.21 8.46,-16.67 18.9,-16.67z"/>
  <path class="fil1" d="M224.14 510.36c-12.65,16.18 -21.68,33.35 -27.21,50.91 -9.53,30.22 -8.71,61.64 1.78,91.19 10.54,29.69 30.83,57.55 60.2,80.5 22.73,17.76 50.9,32.6 84.21,43.11l-2.71 8.71c-34.37,-10.84 -63.52,-26.21 -87.11,-44.64 -30.79,-24.06 -52.09,-53.36 -63.2,-84.64 -11.15,-31.42 -12.02,-64.82 -1.89,-96.95 5.86,-18.57 15.4,-36.72 28.75,-53.8l7.18 5.61z"/>
  <path class="fil1" d="M552.15 510.36c12.64,16.18 21.67,33.35 27.21,50.91 9.52,30.22 8.71,61.64 -1.79,91.19 -10.54,29.69 -30.83,57.55 -60.2,80.5 -22.73,17.76 -50.9,32.6 -84.21,43.11l2.72 8.71c34.37,-10.84 63.52,-26.21 87.1,-44.64 30.79,-24.06 52.1,-53.36 63.2,-84.64 11.15,-31.42 12.02,-64.82 1.89,-96.95 -5.85,-18.57 -15.39,-36.72 -28.74,-53.8l-7.18 5.61z"/>
  <path class="fil6" d="M214.86 518.16c18.03,-9.97 12.53,-20.65 23.09,-29.21 -18.03,5.45 -25.73,15.19 -23.09,29.21z"/>
  <path class="fil10" d="M232.52 492.63c-4.82,7.62 -8.81,12.59 -11.97,14.92 1.76,-6.67 5.75,-11.65 11.97,-14.92z"/>
  <path class="fil6" d="M203.53 532.91c7.94,-21.87 -3.01,-27.57 -0.05,-42.84 -10.74,17.8 -10.72,32.09 0.05,42.84z"/>
  <path class="fil10" d="M201.51 497.27c0.96,10.31 0.92,17.65 -0.11,22.01 -2.77,-7.27 -2.73,-14.61 0.11,-22.01z"/>
  <path class="fil6" d="M196.73 552.07c3.26,-24.94 -8.62,-28.53 -8.87,-45.37 -6.84,21.25 -3.89,36.37 8.87,45.37z"/>
  <path class="fil10" d="M187.42 514.77c3.06,10.71 4.53,18.49 4.42,23.34 -4.21,-7.09 -5.68,-14.87 -4.42,-23.34z"/>
  <path class="fil6" d="M189.17 562.4c0.09,-25.14 -12.16,-27.21 -14.53,-43.88 -4.11,21.94 0.74,36.57 14.53,43.88z"/>
  <path class="fil10" d="M175.22 526.58c4.39,10.23 6.83,17.77 7.33,22.59 -5.07,-6.5 -7.51,-14.03 -7.33,-22.59z"/>
  <path class="fil6" d="M185.13 579.54c-3.34,-24.92 -15.76,-25.3 -20.38,-41.48 -1.07,22.29 5.72,36.12 20.38,41.48z"/>
  <path class="fil10" d="M166.42 545.96c5.74,9.54 9.19,16.67 10.35,21.38 -5.91,-5.75 -9.36,-12.87 -10.35,-21.38z"/>
  <path class="fil6" d="M183.37 595.42c-5.49,-24.54 -17.89,-23.84 -23.9,-39.57 0.86,22.31 8.83,35.5 23.9,39.57z"/>
  <path class="fil10" d="M161.83 563.58c6.54,9.01 10.59,15.81 12.16,20.41 -6.39,-5.22 -10.44,-12.02 -12.16,-20.41z"/>
  <path class="fil6" d="M184.13 613.82c-7.25,-24.08 -19.56,-22.5 -26.68,-37.75 2.46,22.19 11.35,34.77 26.68,37.75z"/>
  <path class="fil10" d="M160.35 583.61c7.17,8.52 11.71,15.01 13.59,19.48 -6.74,-4.74 -11.27,-11.24 -13.59,-19.48z"/>
  <path class="fil6" d="M185.39 630.96c-9.01,-23.48 -21.17,-20.99 -29.41,-35.66 4.1,21.94 13.9,33.82 29.41,35.66z"/>
  <path class="fil10" d="M159.44 602.59c7.78,7.97 12.78,14.11 15,18.42 -7.08,-4.23 -12.08,-10.37 -15,-18.42z"/>
  <path class="fil6" d="M189.67 647.59c-11.11,-22.56 -22.99,-18.97 -32.53,-32.84 6.08,21.48 16.93,32.43 32.53,32.84z"/>
  <path class="fil10" d="M161.25 621.71c8.48,7.22 14.01,12.88 16.61,16.98 -7.43,-3.57 -12.97,-9.23 -16.61,-16.98z"/>
  <path class="fil6" d="M195.47 663.22c-14.98,-20.72 -26.79,-15.44 -38.81,-27.78 9.59,20.37 22.52,29.63 38.81,27.78z"/>
  <path class="fil10" d="M161.98 641.73c9.91,5.91 16.53,10.71 19.86,14.39 -8.27,-2.46 -14.89,-7.25 -19.86,-14.39z"/>
  <path class="fil6" d="M203.79 677.33c-18.67,-18.26 -30.04,-11.28 -44.36,-21.7 13.05,18.72 27.84,25.95 44.36,21.7z"/>
  <path class="fil10" d="M165.9 661.06c11.14,4.37 18.72,8.13 22.72,11.28 -8.91,-1.2 -16.49,-4.96 -22.72,-11.28z"/>
  <path class="fil6" d="M212.61 693.46c-18.67,-18.25 -30.04,-11.28 -44.36,-21.7 13.05,18.72 27.84,25.95 44.36,21.7z"/>
  <path class="fil10" d="M174.72 677.19c11.15,4.37 18.72,8.13 22.72,11.28 -8.91,-1.2 -16.49,-4.96 -22.72,-11.28z"/>
  <path class="fil6" d="M223.95 711.86c-18.67,-18.26 -30.04,-11.28 -44.36,-21.7 13.06,18.72 27.84,25.95 44.36,21.7z"/>
  <path class="fil10" d="M186.06 695.59c11.15,4.37 18.72,8.13 22.72,11.28 -8.91,-1.2 -16.48,-4.96 -22.72,-11.28z"/>
  <path class="fil6" d="M239.32 727.74c-21.44,-14.9 -31.49,-6.13 -47.35,-14.02 15.99,16.29 31.78,20.96 47.35,14.02z"/>
  <path class="fil10" d="M199.26 717.99c11.71,2.46 19.81,4.91 24.28,7.35 -8.99,0.3 -17.08,-2.15 -24.28,-7.35z"/>
  <path class="fil6" d="M260.74 746.14c-21.44,-14.9 -31.49,-6.13 -47.34,-14.02 15.98,16.29 31.77,20.96 47.34,14.02z"/>
  <path class="fil10" d="M220.68 736.39c11.72,2.46 19.81,4.91 24.28,7.35 -8.99,0.3 -17.08,-2.15 -24.28,-7.35z"/>
  <path class="fil6" d="M205.05 536.69c19.72,-5.17 20.67,-17.37 33.61,-23.14 -17.43,0.64 -28.64,8.36 -33.61,23.14z"/>
  <path class="fil10" d="M232.38 515.79c-7.79,6.36 -13.56,10.28 -17.32,11.78 4.82,-6.23 10.59,-10.16 17.32,-11.78z"/>
  <path class="fil6" d="M197.23 554.59c24.26,-5.18 25.43,-17.38 41.34,-23.14 -21.44,0.64 -35.22,8.35 -41.34,23.14z"/>
  <path class="fil10" d="M230.84 533.69c-9.58,6.35 -16.68,10.28 -21.3,11.77 5.93,-6.23 13.03,-10.15 21.3,-11.77z"/>
  <path class="fil6" d="M189.67 577.27c25.25,-7.83 25.05,-20.08 41.33,-27.58 -22.78,3.02 -36.56,12.21 -41.33,27.58z"/>
  <path class="fil10" d="M223.03 552.78c-9.46,7.38 -16.56,12.06 -21.31,14.06 5.58,-6.85 12.68,-11.54 21.31,-14.06z"/>
  <path class="fil6" d="M188.66 596.93c23.71,-11.71 21.58,-23.78 36.48,-33.74 -22.02,6.56 -34.19,17.81 -36.48,33.74z"/>
  <path class="fil10" d="M217.75 567.5c-8.18,8.77 -14.46,14.51 -18.83,17.23 4.43,-7.64 10.71,-13.39 18.83,-17.23z"/>
  <path class="fil6" d="M189.42 616.09c22.59,-13.75 19.41,-25.58 33.38,-36.81 -21.37,8.46 -32.49,20.73 -33.38,36.81z"/>
  <path class="fil10" d="M215.82 584.21c-7.38,9.46 -13.13,15.73 -17.26,18.83 3.75,-8.01 9.5,-14.28 17.26,-18.83z"/>
  <path class="fil6" d="M189.93 635.49c22.3,-16.42 17.39,-27.77 30.84,-40.64 -21.69,11.04 -31.97,24.58 -30.84,40.64z"/>
  <path class="fil10" d="M213.96 600.61c-6.65,10.29 -11.97,17.23 -15.97,20.8 2.96,-8.4 8.28,-15.33 15.97,-20.8z"/>
  <path class="fil6" d="M193.45 652.63c20.98,-18.09 15.21,-29.03 27.63,-42.89 -20.78,12.67 -29.99,26.97 -27.63,42.89z"/>
  <path class="fil10" d="M214.73 616c-5.84,10.78 -10.61,18.1 -14.32,21.97 2.31,-8.6 7.08,-15.93 14.32,-21.97z"/>
  <path class="fil6" d="M202.53 671.03c18.75,-20.39 11.75,-30.59 22.48,-45.8 -19.17,14.99 -26.67,30.25 -22.48,45.8z"/>
  <path class="fil10" d="M219.43 632.19c-4.55,11.38 -8.45,19.2 -11.69,23.48 1.3,-8.82 5.2,-16.64 11.69,-23.48z"/>
  <path class="fil6" d="M212.86 689.18c16.28,-22.42 8.15,-31.75 17.06,-48.09 -17.32,17.1 -23.01,33.12 -17.06,48.09z"/>
  <path class="fil10" d="M225.18 648.65c-3.21,11.82 -6.18,20.04 -8.91,24.66 0.28,-8.9 3.25,-17.12 8.91,-24.66z"/>
  <path class="fil6" d="M224.96 706.06c14.33,-23.7 5.45,-32.31 12.95,-49.34 -15.82,18.49 -20.14,34.94 -12.95,49.34z"/>
  <path class="fil10" d="M233.82 664.64c-2.21,12.06 -4.47,20.5 -6.8,25.33 -0.47,-8.9 1.79,-17.34 6.8,-25.33z"/>
  <path class="fil6" d="M236.55 721.69c11.16,-25.35 1.24,-32.75 6.49,-50.61 -13.31,20.38 -15.47,37.25 -6.49,50.61z"/>
  <path class="fil10" d="M240 679.47c-0.63,12.24 -1.79,20.9 -3.47,25.99 -1.62,-8.76 -0.46,-17.42 3.47,-25.99z"/>
  <path class="fil6" d="M248.65 735.05c11.81,-25.06 2.09,-32.71 7.8,-50.42 -13.83,20.02 -16.43,36.83 -7.8,50.42z"/>
  <path class="fil10" d="M253.19 692.93c-0.95,12.22 -2.33,20.85 -4.14,25.9 -1.39,-8.8 -0.01,-17.44 4.14,-25.9z"/>
  <path class="fil6" d="M269.87 748.84c8.79,-26.71 -6.2,-32.64 -3.49,-51.09 -12.85,22.08 -11.68,39.12 3.49,51.09z"/>
  <path class="fil10" d="M264.34 706.5c2.09,12.22 2.63,20.97 1.61,26.26 -4.26,-8.46 -4.8,-17.21 -1.61,-26.26z"/>
  <path class="fil3" d="M458.92 745.59c25.56,-28.79 52.97,-36.26 77.82,-18.18 -16.89,14.69 -44.3,22.17 -77.82,18.18z"/>
  <path class="fil8" d="M458.35 745.09c13.03,-14.68 26.57,-23.87 40.02,-27.01 13.22,-3.09 26.34,-0.36 38.81,8.72l0.78 0.56 -0.72 0.62c-8.74,7.6 -20.25,13.29 -33.94,16.49 -13.02,3.04 -28.02,3.83 -44.47,1.88l-1.45 -0.17 0.97 -1.09zm40.37 -25.53c-12.81,2.99 -25.74,11.64 -38.25,25.44 15.69,1.72 30.02,0.9 42.48,-2.01 13.06,-3.05 24.1,-8.41 32.55,-15.53 -11.85,-8.35 -24.28,-10.82 -36.78,-7.9z"/>
  <path class="fil11" d="M468.29 740.92c15.81,-13.84 41.89,-19.9 55.82,-13.84 -15.67,-2.75 -34.27,1.87 -55.82,13.84z"/>
  <path class="fil3" d="M512.5 708.01c15.2,-26.98 35,-37.23 56.64,-26.66 -10.7,14.37 -30.49,24.61 -56.64,26.66z"/>
  <path class="fil8" d="M511.99 707.69c7.75,-13.75 16.71,-23.2 26.5,-27.81 9.62,-4.53 20.04,-4.39 30.9,0.91l0.67 0.33 -0.46 0.61c-5.53,7.43 -13.46,13.77 -23.43,18.46 -9.47,4.46 -20.8,7.43 -33.63,8.43l-1.13 0.09 0.58 -1.02zm26.98 -26.68c-9.32,4.38 -17.89,13.31 -25.38,26.28 12.23,-1.07 23.03,-3.96 32.1,-8.23 9.51,-4.47 17.13,-10.47 22.51,-17.47 -10.28,-4.82 -20.12,-4.87 -29.23,-0.58z"/>
  <path class="fil11" d="M518.95 702.82c9.99,-13.52 28.98,-22.43 40.51,-19.77 -12.36,0.26 -25.86,6.84 -40.51,19.77z"/>
  <path class="fil3" d="M546.63 663.69c1.99,-30.91 15.37,-48.73 39.45,-48.61 -3.39,17.59 -16.77,35.41 -39.45,48.61z"/>
  <path class="fil8" d="M546.04 663.63c1.01,-15.76 4.98,-28.17 11.8,-36.57 6.7,-8.26 16.14,-12.65 28.23,-12.59l0.74 0 -0.14 0.75c-1.75,9.1 -6.15,18.25 -13.09,26.8 -6.6,8.13 -15.51,15.73 -26.64,22.2l-0.97 0.57 0.07 -1.16zm12.72 -35.76c-6.49,8 -10.34,19.76 -11.45,34.7 10.55,-6.28 19.02,-13.57 25.34,-21.35 6.63,-8.16 10.89,-16.87 12.7,-25.52 -11.36,0.12 -20.25,4.36 -26.59,12.17z"/>
  <path class="fil11" d="M550.2 656.21c3.13,-16.52 16.37,-32.79 27.9,-35.39 -11.02,5.59 -20.32,17.39 -27.9,35.39z"/>
  <path class="fil3" d="M559.72 619.74c-9.14,-29.59 -2.98,-51 19.58,-59.45 3.08,17.64 -3.09,39.05 -19.58,59.45z"/>
  <path class="fil8" d="M559.14 619.9c-4.66,-15.09 -5.37,-28.09 -1.98,-38.37 3.32,-10.1 10.58,-17.57 21.9,-21.81l0.7 -0.26 0.13 0.75c1.6,9.12 0.75,19.24 -2.7,29.7 -3.27,9.95 -8.9,20.22 -17,30.23l-0.71 0.88 -0.34 -1.12zm-0.83 -37.95c-3.22,9.79 -2.63,22.15 1.64,36.51 7.63,-9.62 12.95,-19.45 16.09,-28.97 3.29,-9.98 4.17,-19.63 2.79,-28.37 -10.57,4.16 -17.37,11.28 -20.52,20.83z"/>
  <path class="fil11" d="M560.38 611.49c-2.94,-16.55 3.64,-36.47 13.5,-43.01 -8.31,9.15 -12.81,23.49 -13.5,43.01z"/>
  <path class="fil3" d="M545.31 574.93c-18.25,-25.02 -19.36,-47.28 -0.77,-62.59 8.64,15.69 9.76,37.95 0.77,62.59z"/>
  <path class="fil8" d="M544.81 575.27c-9.3,-12.76 -14.19,-24.83 -14.32,-35.65 -0.13,-10.64 4.31,-20.06 13.64,-27.74l0.58 -0.48 0.37 0.67c4.47,8.11 6.95,17.96 7.08,28.98 0.13,10.47 -1.86,22 -6.27,34.1l-0.39 1.06 -0.69 -0.94zm-13.09 -35.63c0.13,10.31 4.69,21.81 13.39,34 4.1,-11.57 5.95,-22.6 5.82,-32.62 -0.12,-10.51 -2.42,-19.93 -6.56,-27.74 -8.65,7.36 -12.77,16.3 -12.65,26.36z"/>
  <path class="fil11" d="M543.26 566.91c-8.16,-14.7 -8.39,-35.67 -1.18,-45.06 -4.9,11.35 -4.5,26.37 1.18,45.06z"/>
  <path class="fil3" d="M524.58 792.45c-11.47,-32.35 -4.75,-56.71 21.52,-67.83 4.06,19.46 -2.65,43.83 -21.52,67.83z"/>
  <path class="fil8" d="M523.9 792.66c-5.84,-16.49 -6.99,-30.95 -3.27,-42.67 3.66,-11.53 12,-20.4 25.19,-25.98l0.81 -0.35 0.18 0.83c2.09,10.06 1.34,21.42 -2.44,33.36 -3.61,11.34 -9.96,23.22 -19.22,35l-0.81 1.03 -0.44 -1.22zm-1.91 -42.29c-3.54,11.17 -2.54,24.92 2.83,40.63 8.72,-11.31 14.73,-22.68 18.18,-33.54 3.61,-11.39 4.41,-22.23 2.57,-31.87 -12.31,5.43 -20.12,13.88 -23.58,24.78z"/>
  <path class="fil11" d="M525.16 783.18c-3.87,-18.25 3.37,-40.97 14.78,-49 -9.53,10.83 -14.46,27.16 -14.78,49z"/>
  <path class="fil3" d="M582.47 750.01c-24.42,-20.76 -29.75,-42.87 -12.41,-62.74 12.28,13.69 17.6,35.8 12.41,62.74z"/>
  <path class="fil8" d="M582 750.46c-12.46,-10.58 -19.99,-21.54 -22.14,-32.39 -2.1,-10.65 0.97,-21.19 9.68,-31.16l0.54 -0.62 0.52 0.59c6.35,7.08 10.86,16.38 13.04,27.42 2.08,10.49 2.05,22.57 -0.5,35.79l-0.22 1.16 -0.92 -0.79zm-20.8 -32.65c2.05,10.32 9.13,20.79 20.82,30.95 2.3,-12.62 2.27,-24.15 0.28,-34.2 -2.08,-10.53 -6.31,-19.44 -12.25,-26.29 -8.03,9.47 -10.84,19.45 -8.85,29.54z"/>
  <path class="fil11" d="M578.77 742.44c-11.57,-12.82 -15.7,-33.84 -9.62,-45.01 -3.21,12.59 -0.01,27.59 9.62,45.01z"/>
  <path class="fil3" d="M617.58 708.23c-27.68,-17.75 -36.13,-39.49 -21.24,-62.07 14.36,12.23 22.82,33.97 21.24,62.07z"/>
  <path class="fil8" d="M617.16 708.76c-14.11,-9.05 -23.28,-19.15 -26.95,-29.89 -3.61,-10.54 -1.93,-21.68 5.55,-33.01l0.46 -0.7 0.61 0.52c7.43,6.32 13.29,15.16 17.03,26.08 3.55,10.39 5.19,22.67 4.41,36.46l-0.06 1.21 -1.05 -0.67zm-25.63 -30.34c3.5,10.21 12.14,19.88 25.42,28.6 0.61,-13.14 -1.01,-24.86 -4.41,-34.8 -3.57,-10.42 -9.09,-18.9 -16.07,-25.05 -6.86,10.74 -8.35,21.27 -4.94,31.25z"/>
  <path class="fil11" d="M612.78 701.04c-13.53,-11.44 -20.62,-32.25 -15.97,-44.43 -1.53,13.24 3.79,28.05 15.97,44.43z"/>
  <path class="fil3" d="M638.03 648.68c-31.73,-8.65 -46.3,-26.86 -38.85,-52.86 17.36,7.37 31.94,25.58 38.85,52.86z"/>
  <path class="fil8" d="M637.79 649.31c-16.18,-4.41 -27.95,-11.3 -34.67,-20.44 -6.6,-8.98 -8.33,-20.11 -4.59,-33.16l0.23 -0.81 0.74 0.32c8.98,3.81 17.22,10.48 24.06,19.78 6.5,8.85 11.73,20.08 15.13,33.46l0.3 1.18 -1.2 -0.33zm-33.54 -21.27c6.39,8.7 17.53,15.33 32.82,19.68 -3.36,-12.72 -8.41,-23.42 -14.64,-31.89 -6.52,-8.87 -14.33,-15.3 -22.83,-19.08 -3.33,12.29 -1.6,22.79 4.65,31.29z"/>
  <path class="fil11" d="M631.29 643.26c-16.33,-6.86 -29.32,-24.59 -28.54,-37.61 2.5,13.09 12.01,25.63 28.54,37.61z"/>
  <path class="fil3" d="M634.45 567.83c-32.34,5.96 -53.37,-4.13 -57.93,-30.8 18.85,-0.88 39.88,9.21 57.93,30.8z"/>
  <path class="fil8" d="M634.51 568.5c-16.49,3.04 -30.09,1.93 -40.11,-3.39 -9.84,-5.24 -16.22,-14.51 -18.5,-27.9l-0.15 -0.83 0.81 -0.03c9.74,-0.46 20.06,1.99 30.25,7.4 9.69,5.16 19.28,13 28.14,23.6l0.78 0.93 -1.22 0.22zm-39.45 -4.63c9.53,5.07 22.44,6.22 38.11,3.51 -8.55,-10.01 -17.73,-17.46 -27.01,-22.39 -9.73,-5.17 -19.56,-7.58 -28.86,-7.3 2.34,12.52 8.45,21.23 17.76,26.18z"/>
  <path class="fil11" d="M626.03 565.86c-17.69,0.9 -37.09,-9.45 -42.02,-21.52 7.92,10.71 21.93,17.89 42.02,21.52z"/>
  <path class="fil3" d="M614.44 521.71c-31.9,7.98 -53.52,-0.78 -59.74,-27.1 18.74,-2.07 40.37,6.68 59.74,27.1z"/>
  <path class="fil8" d="M614.54 522.38c-16.27,4.07 -29.91,3.81 -40.24,-0.88 -10.15,-4.6 -17.1,-13.46 -20.22,-26.67l-0.19 -0.82 0.79 -0.09c9.7,-1.07 20.16,0.73 30.67,5.49 9.99,4.54 20.05,11.77 29.56,21.79l0.83 0.87 -1.2 0.31zm-39.66 -2.15c9.83,4.46 22.79,4.8 38.25,1.11 -9.15,-9.45 -18.79,-16.31 -28.36,-20.65 -10.03,-4.55 -19.99,-6.34 -29.26,-5.48 3.12,12.35 9.77,20.66 19.37,25.02z"/>
  <path class="fil11" d="M605.91 520.28c-17.6,2 -37.6,-7.11 -43.29,-18.84 8.58,10.19 23.02,16.47 43.29,18.84z"/>
  <circle class="fil12" cx="516.23" cy="739.18" r="5.51"/>
  <circle class="fil12" cx="521.13" cy="747.22" r="5.51"/>
  <circle class="fil12" cx="530.58" cy="731.1" r="5.51"/>
  <circle class="fil12" cx="573.11" cy="682.65" r="5.51"/>
  <circle class="fil12" cx="586.53" cy="684.67" r="5.51"/>
  <circle class="fil12" cx="583.45" cy="668.38" r="5.51"/>
  <circle class="fil12" cx="570.18" cy="668.49" r="5.51"/>
  <circle class="fil12" cx="593.18" cy="643.63" r="5.51"/>
  <circle class="fil12" cx="584.73" cy="635.24" r="5.51"/>
  <circle class="fil12" cx="590.46" cy="621.22" r="5.51"/>
  <circle class="fil12" cx="584.09" cy="597.01" r="5.51"/>
  <circle class="fil12" cx="586" cy="584.9" r="5.51"/>
  <circle class="fil12" cx="592.37" cy="573.43" r="5.51"/>
  <circle class="fil12" cx="579.89" cy="560.21" r="5.51"/>
  <circle class="fil12" cx="562.28" cy="517.63" r="5.51"/>
  <circle class="fil12" cx="547.17" cy="516.33" r="5.51"/>
  <circle class="fil12" cx="537.43" cy="513.52" r="5.51"/>
  <circle class="fil12" cx="535.02" cy="500.14" r="5.51"/>
  <circle class="fil12" cx="548.93" cy="504.1" r="5.51"/>
  <circle class="fil12" cx="546.09" cy="493.7" r="5.51"/>
  <path class="fil13" d="M307.82 819.02c-0.73,0.41 -1.66,0.16 -2.07,-0.57 -0.41,-0.73 -0.16,-1.66 0.57,-2.07 12.27,-6.98 20.47,-10.85 24.81,-11.64 6.46,-1.17 7.25,1.9 2.69,9.18 -1.06,1.7 -0.89,2.34 0.14,2.25 2.76,-0.25 7.67,-2.04 13.75,-4.71 8.59,-3.76 13.47,-5.15 16.04,-5.21 1.54,-0.04 2.55,0.38 3.14,1.09 0.68,0.82 0.74,1.83 0.39,2.91 -0.47,1.46 -1.81,3.16 -2.94,4.38 -0.08,0.09 -2.36,-0.07 -1.27,0.05 1.69,0.19 6.28,-0.52 16.47,-2.94 7.86,-1.87 11.9,-4.04 13.77,-5.05 0.82,-0.44 1.33,-0.71 1.85,-0.76l0.05 0c2.52,-0.22 2.21,0.84 1.39,3.55 -0.2,0.63 -0.46,1.49 -0.78,2.76l-0.01 0.05c0.31,0.15 0.86,0.23 1.71,0.21 1.83,-0.04 4.68,-0.58 8.98,-1.89 5.43,-1.66 8.88,-2.43 10.34,-2.07 0.81,0.2 1.35,0.5 1.65,0.89 3.47,-3.57 6.08,-6.53 7.81,-8.61 0.97,-1.33 1.67,-2.24 2.1,-2.77l0.55 -0.67c1.69,-2.88 3.32,-4.48 4.37,-4.93 1.4,-1.28 1.73,-0.97 1.17,0.58 0.06,0.99 -0.76,3 -2.94,5.91l-0.18 0.32c-0.11,0.18 -0.47,0.69 -1.08,1.47l-1.55 1.91c-0.86,1.19 -1.96,2.74 -3.3,4.69l-0.07 0.09c-1.31,1.95 -1.68,3.81 -1.36,5.36 0.21,1.03 0.74,1.94 1.49,2.66l0.05 0.04c0.78,0.74 1.81,1.29 3,1.57 2.34,0.56 5.31,0.13 8.38,-1.77 5.08,-3.14 9.5,-3.55 12.76,-2.69 1.21,-1.04 2.86,-1.96 5.04,-2.63 3.57,-1.11 6.51,-2.05 9.14,-3.15 2.56,-1.07 4.84,-2.29 7.16,-3.98 0.68,-0.49 1.63,-0.34 2.13,0.34 0.49,0.68 0.34,1.64 -0.34,2.13 -2.52,1.83 -5,3.16 -7.78,4.32 -2.72,1.13 -5.74,2.1 -9.42,3.24 -1.09,0.34 -2,0.74 -2.75,1.18 0.74,0.51 1.35,1.1 1.82,1.73 0.71,0.95 1.11,1.99 1.16,3 0.08,1.67 -0.73,3.17 -2.58,4.01 -1.84,0.82 -3.59,0.39 -4.8,-0.77 -0.64,-0.61 -1.12,-1.41 -1.37,-2.33 -0.24,-0.88 -0.29,-1.87 -0.07,-2.88 0.11,-0.5 0.28,-1.01 0.53,-1.52 -2.4,-0.24 -5.47,0.38 -9.03,2.58 -3.82,2.37 -7.62,2.88 -10.68,2.15 -1.73,-0.42 -3.24,-1.23 -4.4,-2.32l-0.04 -0.04c-1.2,-1.15 -2.04,-2.61 -2.38,-4.26 -0.13,-0.66 -0.19,-1.34 -0.16,-2.05l-2.49 2.52c-2.9,2.89 -5.08,4.58 -6.26,5.23l-0.09 0.05c-0.8,0.42 -1.5,0.49 -2.05,0.25 -1.09,-0.49 -1.34,-1.39 -0.64,-2.63 0.41,-0.72 1.53,-1.98 3.41,-3.63 1.51,-1.31 4.15,-1.43 3.36,-1.63 -0.87,-0.22 -3.83,0.52 -8.72,2.02 -4.58,1.39 -7.71,1.97 -9.78,2.02 -1.45,0.03 -2.49,-0.18 -3.21,-0.56 -1.03,-0.53 -1.52,-1.33 -1.62,-2.27 -0.05,-0.4 -0.01,-0.81 0.09,-1.21l0.35 -1.32c-2.38,1.19 -6.44,2.97 -12.98,4.52 -10.56,2.51 -15.48,3.23 -17.5,3 -4.81,-0.54 -2.86,-2.74 -0.63,-5.14 0.91,-0.98 1.97,-2.29 2.28,-3.25 0.04,-0.08 0.24,0.08 0.16,-0.02 -0.01,-0.01 -0.23,-0.02 -0.73,0 -2.22,0.05 -6.7,1.37 -14.9,4.95 -6.35,2.79 -11.56,4.67 -14.68,4.95 -4.86,0.44 -6.36,-1.51 -3,-6.87 2.13,-3.4 2.3,-4.93 0.43,-4.59 -3.99,0.72 -11.87,4.48 -23.85,11.29zm144.44 -1.43c-0.39,-0.52 -0.97,-1.02 -1.72,-1.43 -0.27,0.43 -0.44,0.86 -0.53,1.28 -0.11,0.52 -0.1,1.01 0.02,1.43 0.1,0.38 0.29,0.7 0.53,0.93 0.36,0.34 0.89,0.46 1.47,0.2 0.56,-0.25 0.81,-0.65 0.79,-1.08 -0.02,-0.41 -0.22,-0.87 -0.56,-1.33z"/>
  <path class="fil5" d="M254.91 842.98c21.04,8.25 31.62,25.22 31.76,50.9 -27.7,0.89 -47.53,-5.83 -59.48,-20.16 -5.82,12.67 -13.55,20.9 -23.19,24.7 -5.37,-16.95 -2.35,-30.22 9.07,-39.82 -11.84,2.42 -21.92,2.09 -30.24,-1.01 25.36,-21.35 49.39,-26.23 72.08,-14.61z"/>
  <path class="fil1" d="M255.63 841.22c10.9,4.28 19.11,10.84 24.61,19.67 5.48,8.78 8.26,19.78 8.33,32.99 0,1.03 -0.82,1.87 -1.84,1.9 -14.08,0.45 -26.19,-1.04 -36.31,-4.47 -9.23,-3.13 -16.81,-7.86 -22.76,-14.19 -2.71,5.37 -5.79,9.89 -9.25,13.58 -4.06,4.32 -8.63,7.49 -13.72,9.49 -0.97,0.38 -2.08,-0.1 -2.46,-1.08l-0.04 -0.11c-2.79,-8.8 -3.39,-16.69 -1.81,-23.66 1.18,-5.15 3.53,-9.77 7.06,-13.86 -3.81,0.5 -7.44,0.7 -10.87,0.58 -5.24,-0.17 -10.05,-1.07 -14.4,-2.69 -0.98,-0.36 -1.49,-1.46 -1.12,-2.44 0.13,-0.35 0.35,-0.64 0.63,-0.85 25.92,-21.8 50.57,-26.75 73.95,-14.86zm21.38 21.68c-5.06,-8.13 -12.67,-14.18 -22.79,-18.15l-0.17 -0.09c-21.15,-10.82 -43.6,-6.75 -67.32,12.19 3.09,0.82 6.41,1.3 9.96,1.42 4.86,0.16 10.17,-0.34 15.9,-1.51 0.69,-0.18 1.46,0.04 1.94,0.62 0.68,0.8 0.57,2 -0.23,2.68 -5.39,4.52 -8.79,9.9 -10.21,16.11 -1.31,5.77 -0.94,12.33 1.12,19.66 3.81,-1.8 7.29,-4.38 10.44,-7.74 3.7,-3.94 6.96,-8.97 9.77,-15.06 0.11,-0.29 0.3,-0.55 0.55,-0.77 0.8,-0.67 2,-0.56 2.68,0.24 5.75,6.89 13.41,11.96 22.99,15.2 9.25,3.14 20.29,4.58 33.1,4.33 -0.3,-11.64 -2.88,-21.35 -7.73,-29.13z"/>
  <path class="fil5" d="M524.09 842.98c-21.04,8.25 -31.62,25.22 -31.76,50.9 27.7,0.89 47.53,-5.83 59.48,-20.16 5.82,12.67 13.55,20.9 23.19,24.7 5.37,-16.95 2.35,-30.22 -9.07,-39.82 11.84,2.42 21.92,2.09 30.24,-1.01 -25.36,-21.35 -49.39,-26.23 -72.08,-14.61z"/>
  <path class="fil1" d="M524.78 844.74c-10.12,3.98 -17.73,10.03 -22.79,18.16 -4.85,7.78 -7.43,17.49 -7.73,29.13 12.81,0.25 23.85,-1.19 33.1,-4.33 9.58,-3.24 17.24,-8.31 22.99,-15.2 0.68,-0.8 1.88,-0.91 2.68,-0.24 0.25,0.22 0.44,0.48 0.55,0.77 2.81,6.09 6.07,11.12 9.77,15.06 3.15,3.36 6.63,5.94 10.44,7.74 2.06,-7.33 2.43,-13.89 1.12,-19.66 -1.42,-6.21 -4.82,-11.59 -10.21,-16.11 -0.8,-0.68 -0.91,-1.88 -0.23,-2.68 0.48,-0.58 1.25,-0.8 1.94,-0.62 5.73,1.17 11.04,1.67 15.9,1.51 3.55,-0.12 6.87,-0.6 9.96,-1.42 -23.72,-18.94 -46.17,-23.01 -67.32,-12.19l-0.17 0.08zm-26.02 16.15c5.5,-8.83 13.71,-15.39 24.61,-19.67 23.38,-11.89 48.03,-6.94 73.95,14.86 0.28,0.21 0.5,0.5 0.63,0.85 0.37,0.98 -0.14,2.08 -1.12,2.44 -4.35,1.62 -9.16,2.52 -14.4,2.69 -3.43,0.12 -7.06,-0.08 -10.87,-0.58 3.53,4.09 5.88,8.71 7.06,13.86 1.58,6.97 0.98,14.86 -1.81,23.66l-0.04 0.11c-0.38,0.98 -1.49,1.46 -2.46,1.08 -5.09,-2 -9.66,-5.17 -13.72,-9.49 -3.46,-3.69 -6.54,-8.21 -9.25,-13.58 -5.95,6.33 -13.53,11.06 -22.76,14.19 -10.12,3.43 -22.23,4.92 -36.31,4.47 -1.02,-0.03 -1.84,-0.87 -1.84,-1.9 0.07,-13.21 2.85,-24.21 8.33,-32.99z"/>
  <path class="fil7" d="M259.95 877.25c21.24,1.46 24.84,5.98 26.72,16.63l5.04 -51.41 -22.77 -17.73c-25.7,-8.21 -38.43,50.49 -8.99,52.51z"/>
  <path class="fil7" d="M519.05 877.25c-21.24,1.46 -24.84,5.98 -26.72,16.63l-5.04 -51.41 22.77 -17.73c25.7,-8.21 38.43,50.49 8.99,52.51z"/>
  <path class="fil5" d="M247.38 853.98c-7.93,-21.34 15.54,-32.32 21.56,-29.24 77.05,39.44 164.07,39.44 241.12,0 6.02,-3.08 29.49,7.9 21.56,29.24 -55.57,53.7 -228.67,53.7 -284.24,0z"/>
  <path class="fil1" d="M245.58 854.58c-2.75,-7.45 -1.95,-13.78 0.63,-18.81 1.58,-3.09 3.82,-5.67 6.31,-7.71 2.47,-2.03 5.2,-3.54 7.76,-4.49 3.8,-1.41 7.39,-1.61 9.53,-0.52 38.23,19.58 78.96,29.37 119.69,29.37 40.73,0 81.45,-9.79 119.69,-29.37 2.14,-1.09 5.73,-0.9 9.53,0.52 2.56,0.95 5.29,2.46 7.76,4.49 2.49,2.04 4.73,4.62 6.31,7.71 2.58,5.04 3.39,11.39 0.61,18.87 -0.1,0.28 -0.26,0.52 -0.46,0.71 -28.15,27.2 -85.84,40.81 -143.44,40.81 -57.6,0 -115.29,-13.61 -143.44,-40.81 -0.23,-0.22 -0.39,-0.49 -0.48,-0.77zm4.01 -17.09c-2.1,4.09 -2.76,9.26 -0.58,15.42 27.53,26.29 83.97,39.44 140.49,39.44 56.52,0 112.96,-13.15 140.49,-39.44 2.18,-6.16 1.52,-11.33 -0.58,-15.42 -1.32,-2.58 -3.22,-4.76 -5.34,-6.5 -2.13,-1.75 -4.47,-3.05 -6.67,-3.86 -2.83,-1.06 -5.27,-1.32 -6.48,-0.7 -38.8,19.86 -80.12,29.8 -121.42,29.8 -41.3,0 -82.62,-9.94 -121.42,-29.8 -1.2,-0.62 -3.65,-0.35 -6.48,0.7 -2.19,0.81 -4.54,2.11 -6.67,3.86 -2.12,1.74 -4.02,3.92 -5.34,6.5z"/>
  <path class="fil1" d="M266.06 848.32l2.72 1.37c-0.39,0.95 -0.48,1.77 -0.26,2.48 0.21,0.7 0.72,1.3 1.51,1.8 0.84,0.54 1.59,0.76 2.24,0.68 0.66,-0.09 1.14,-0.37 1.44,-0.85 0.2,-0.31 0.27,-0.63 0.23,-0.96 -0.04,-0.33 -0.24,-0.71 -0.58,-1.16 -0.24,-0.3 -0.82,-0.93 -1.73,-1.89 -1.18,-1.24 -1.89,-2.3 -2.13,-3.17 -0.34,-1.22 -0.18,-2.35 0.47,-3.38 0.42,-0.66 1.01,-1.17 1.75,-1.51 0.74,-0.34 1.56,-0.43 2.45,-0.29 0.9,0.15 1.84,0.54 2.84,1.17 1.63,1.03 2.62,2.17 2.98,3.41 0.37,1.25 0.19,2.48 -0.54,3.72l-2.69 -1.58c0.31,-0.75 0.38,-1.38 0.2,-1.9 -0.18,-0.53 -0.63,-1.03 -1.36,-1.49 -0.76,-0.48 -1.46,-0.7 -2.08,-0.66 -0.41,0.03 -0.72,0.21 -0.93,0.55 -0.2,0.31 -0.24,0.65 -0.11,1.04 0.15,0.49 0.76,1.29 1.85,2.4 1.08,1.11 1.82,2.02 2.23,2.73 0.4,0.71 0.6,1.45 0.59,2.23 -0.01,0.78 -0.28,1.58 -0.8,2.4 -0.47,0.74 -1.12,1.31 -1.95,1.7 -0.82,0.38 -1.72,0.5 -2.67,0.33 -0.96,-0.16 -2,-0.6 -3.13,-1.32 -1.65,-1.05 -2.67,-2.22 -3.07,-3.54 -0.39,-1.32 -0.22,-2.76 0.53,-4.31zm22.93 17.83l-3.04 -1.44 0.31 -3.74 -5.59 -2.65 -2.65 2.62 -2.98 -1.41 12 -11.35 2.97 1.41 -1.02 16.56zm-2.53 -7.97l0.51 -6.06 -4.33 4.26 3.82 1.8zm4.18 8.34l5.04 -14.55 2.85 0.99 2.61 11.82 3.38 -9.75 2.73 0.95 -5.05 14.54 -2.94 -1.02 -2.58 -11.6 -3.32 9.56 -2.72 -0.94zm23.01 1.38l0.64 -2.52 6.48 1.64 -1.51 5.96c-0.78,0.46 -1.83,0.76 -3.15,0.93 -1.31,0.16 -2.58,0.08 -3.81,-0.23 -1.56,-0.39 -2.84,-1.06 -3.83,-2.01 -0.99,-0.95 -1.63,-2.11 -1.9,-3.48 -0.28,-1.37 -0.23,-2.77 0.13,-4.21 0.39,-1.56 1.07,-2.86 2.03,-3.9 0.96,-1.05 2.15,-1.74 3.56,-2.07 1.09,-0.25 2.34,-0.2 3.76,0.16 1.86,0.47 3.21,1.23 4.05,2.27 0.84,1.05 1.24,2.29 1.19,3.74l-3.14 -0.2c-0.03,-0.78 -0.28,-1.46 -0.75,-2.04 -0.47,-0.57 -1.14,-0.96 -2,-1.18 -1.32,-0.33 -2.47,-0.18 -3.46,0.46 -0.98,0.64 -1.69,1.78 -2.1,3.43 -0.45,1.77 -0.4,3.2 0.16,4.29 0.57,1.08 1.48,1.79 2.76,2.11 0.63,0.16 1.29,0.2 1.99,0.11 0.69,-0.09 1.31,-0.25 1.86,-0.49l0.48 -1.89 -3.44 -0.88zm16.4 -6.14l6.06 1.06c1.21,0.21 2.09,0.42 2.66,0.62 0.58,0.21 1.07,0.51 1.48,0.9 0.41,0.4 0.73,0.89 0.95,1.47 0.21,0.58 0.27,1.2 0.15,1.86 -0.12,0.7 -0.43,1.32 -0.91,1.84 -0.49,0.53 -1.08,0.88 -1.79,1.06 0.88,0.44 1.5,1.02 1.89,1.76 0.38,0.73 0.49,1.54 0.34,2.42 -0.12,0.69 -0.4,1.33 -0.84,1.93 -0.43,0.6 -0.96,1.04 -1.59,1.34 -0.62,0.29 -1.35,0.41 -2.18,0.36 -0.52,-0.04 -1.76,-0.22 -3.71,-0.55l-5.17 -0.9 2.66 -15.17zm2.63 3.06l-0.61 3.5 2 0.35c1.19,0.21 1.94,0.32 2.23,0.33 0.54,0.03 0.98,-0.07 1.33,-0.32 0.36,-0.25 0.57,-0.62 0.66,-1.1 0.08,-0.47 0.02,-0.87 -0.19,-1.21 -0.21,-0.34 -0.56,-0.58 -1.06,-0.73 -0.3,-0.09 -1.17,-0.26 -2.6,-0.51l-1.76 -0.31zm-1.05 6.02l-0.72 4.06 2.84 0.5c1.11,0.2 1.81,0.29 2.12,0.28 0.47,-0.01 0.88,-0.14 1.22,-0.42 0.34,-0.27 0.56,-0.67 0.66,-1.21 0.08,-0.46 0.03,-0.87 -0.13,-1.22 -0.17,-0.36 -0.45,-0.65 -0.84,-0.86 -0.39,-0.22 -1.28,-0.46 -2.68,-0.7l-2.47 -0.43zm12.98 -6.61l3.1 0.39 -1.03 8.28c-0.17,1.32 -0.23,2.17 -0.21,2.57 0.05,0.64 0.3,1.18 0.75,1.62 0.44,0.45 1.09,0.72 1.94,0.82 0.87,0.11 1.55,0.01 2.03,-0.29 0.49,-0.3 0.81,-0.71 0.96,-1.22 0.15,-0.51 0.31,-1.37 0.46,-2.58l1.05 -8.46 3.09 0.39 -1 8.03c-0.22,1.84 -0.47,3.12 -0.73,3.86 -0.26,0.74 -0.64,1.34 -1.16,1.81 -0.51,0.46 -1.16,0.8 -1.94,1.02 -0.79,0.22 -1.79,0.25 -2.99,0.1 -1.46,-0.18 -2.54,-0.48 -3.25,-0.92 -0.71,-0.43 -1.25,-0.94 -1.62,-1.53 -0.36,-0.6 -0.58,-1.2 -0.65,-1.81 -0.09,-0.9 -0.03,-2.2 0.19,-3.92l1.01 -8.16zm13.49 17.05l1.25 -15.34 4.66 0.38 1.89 10.69 3.58 -10.25 4.66 0.39 -1.25 15.34 -2.87 -0.23 0.97 -12.08 -4.01 11.83 -2.99 -0.24 -2.02 -12.33 -1 12.08 -2.87 -0.24zm17.81 1.15l0.53 -15.39 3.11 0.11 -0.53 15.39 -3.11 -0.11zm12.05 0.3l-0.1 -15.4 6.55 -0.04c1.64,-0.01 2.84,0.12 3.59,0.39 0.75,0.27 1.35,0.76 1.8,1.46 0.45,0.71 0.68,1.51 0.69,2.42 0.01,1.16 -0.32,2.12 -0.99,2.87 -0.68,0.76 -1.69,1.24 -3.03,1.45 0.67,0.38 1.23,0.81 1.66,1.28 0.44,0.46 1.04,1.3 1.78,2.49l1.9 2.99 -3.72 0.02 -2.25 -3.34c-0.81,-1.19 -1.36,-1.94 -1.66,-2.25 -0.29,-0.31 -0.61,-0.52 -0.94,-0.63 -0.33,-0.11 -0.86,-0.17 -1.57,-0.16l-0.63 0 0.04 6.43 -3.12 0.02zm3.06 -8.9l2.3 -0.02c1.49,-0.01 2.42,-0.08 2.79,-0.2 0.37,-0.13 0.66,-0.35 0.87,-0.66 0.21,-0.31 0.31,-0.7 0.31,-1.16 -0.01,-0.52 -0.15,-0.94 -0.43,-1.26 -0.27,-0.32 -0.67,-0.51 -1.17,-0.59 -0.26,-0.04 -1.01,-0.05 -2.27,-0.04l-2.43 0.02 0.03 3.91zm11.58 -6.71l3.11 -0.18 0.49 8.33c0.07,1.33 0.16,2.18 0.26,2.56 0.17,0.62 0.51,1.11 1.02,1.47 0.52,0.35 1.21,0.5 2.07,0.45 0.87,-0.05 1.52,-0.27 1.94,-0.65 0.42,-0.39 0.66,-0.84 0.72,-1.38 0.06,-0.53 0.06,-1.4 -0.01,-2.62l-0.5 -8.51 3.12 -0.18 0.46 8.09c0.11,1.84 0.1,3.15 -0.02,3.93 -0.12,0.77 -0.39,1.43 -0.81,1.98 -0.42,0.55 -1,1 -1.73,1.36 -0.74,0.35 -1.71,0.57 -2.92,0.64 -1.47,0.08 -2.59,-0.02 -3.36,-0.32 -0.78,-0.3 -1.4,-0.7 -1.87,-1.22 -0.47,-0.52 -0.79,-1.07 -0.97,-1.65 -0.25,-0.87 -0.43,-2.17 -0.52,-3.89l-0.48 -8.21zm18.49 14.17l-5.22 -14.93 3.18 -0.34 3.4 10.28 1.68 -10.82 3.68 -0.39 3.81 10.41 1.2 -10.94 3.11 -0.33 -2.07 15.7 -3.31 0.36 -4.23 -11.13 -1.83 11.77 -3.4 0.36zm30.55 -4.37l-3.31 0.58 -1.91 -3.22 -6.09 1.06 -0.65 3.68 -3.25 0.56 3.24 -16.19 3.24 -0.57 8.73 14.1zm-6.67 -5.03l-3.08 -5.25 -1.07 5.98 4.15 -0.73zm14.96 -12.7l3.02 -0.76 2.38 9.46c0.31,1.24 0.45,2.22 0.4,2.94 -0.08,0.94 -0.43,1.78 -1.07,2.5 -0.63,0.72 -1.57,1.23 -2.83,1.55 -1.48,0.37 -2.71,0.25 -3.71,-0.38 -1.01,-0.62 -1.71,-1.73 -2.12,-3.32l2.78 -1.05c0.25,0.84 0.52,1.41 0.82,1.71 0.46,0.45 1.02,0.59 1.68,0.43 0.66,-0.17 1.09,-0.48 1.26,-0.93 0.19,-0.46 0.12,-1.29 -0.18,-2.5l-2.43 -9.65zm5.45 -1.31l2.98 -0.92 2.47 7.97c0.39,1.26 0.68,2.07 0.87,2.42 0.31,0.57 0.76,0.96 1.35,1.17 0.59,0.22 1.29,0.21 2.11,-0.05 0.83,-0.26 1.41,-0.62 1.73,-1.1 0.32,-0.48 0.44,-0.98 0.37,-1.51 -0.07,-0.53 -0.28,-1.37 -0.64,-2.54l-2.52 -8.14 2.97 -0.92 2.4 7.73c0.55,1.77 0.85,3.04 0.92,3.83 0.06,0.77 -0.04,1.48 -0.32,2.12 -0.27,0.63 -0.72,1.21 -1.35,1.73 -0.63,0.52 -1.52,0.96 -2.68,1.32 -1.4,0.43 -2.51,0.6 -3.34,0.5 -0.82,-0.1 -1.52,-0.35 -2.1,-0.74 -0.59,-0.39 -1.03,-0.84 -1.34,-1.37 -0.45,-0.78 -0.93,-2 -1.45,-3.65l-2.43 -7.85zm19.34 9.95l-5.56 -14.36 6.11 -2.36c1.54,-0.59 2.7,-0.9 3.5,-0.91 0.8,-0.01 1.53,0.23 2.2,0.73 0.68,0.5 1.18,1.17 1.51,2.02 0.41,1.08 0.44,2.09 0.08,3.04 -0.36,0.94 -1.13,1.75 -2.31,2.42 0.76,0.12 1.43,0.32 2,0.61 0.58,0.28 1.43,0.84 2.55,1.69l2.84 2.13 -3.47 1.34 -3.29 -2.33c-1.18,-0.83 -1.96,-1.33 -2.35,-1.52 -0.39,-0.18 -0.75,-0.27 -1.1,-0.25 -0.36,0.01 -0.86,0.15 -1.53,0.4l-0.59 0.23 2.32 6 -2.91 1.12zm-0.3 -9.41l2.15 -0.83c1.39,-0.53 2.23,-0.93 2.54,-1.18 0.29,-0.25 0.49,-0.56 0.57,-0.92 0.09,-0.37 0.05,-0.77 -0.12,-1.2 -0.19,-0.48 -0.47,-0.82 -0.84,-1.02 -0.38,-0.2 -0.81,-0.25 -1.31,-0.14 -0.25,0.06 -0.96,0.31 -2.14,0.77l-2.26 0.87 1.41 3.65zm27.01 -2.82l-2.99 1.54 -2.79 -2.51 -5.49 2.84 0.48 3.7 -2.94 1.51 -1.75 -16.42 2.93 -1.51 12.55 10.85zm-7.87 -2.81l-4.52 -4.09 0.77 6.02 3.75 -1.93zm9.07 1.77l-8.9 -12.57 2.54 -1.8 8.9 12.57 -2.54 1.8z"/>
  <path class="fil14" d="M101.14 59.8l23.26 0 0 45.29 36.43 0 0 14.77 -59.69 0 0 -60.06zm116.58 50.16l-26.39 0 -3.79 9.9 -23.77 0 28.37 -60.06 25.49 0 28.25 60.06 -24.39 0 -3.77 -9.9zm-4.93 -13l-8.23 -21.59 -8.26 21.59 16.49 0zm40.23 -37.16l30.72 0 11.7 36.54 11.74 -36.54 30.57 0 0 60.06 -19.05 0 0 -45.79 -14.7 45.79 -17.26 0 -14.67 -45.79 0 45.79 -19.05 0 0 -60.06zm99.45 0l38.74 0c8.44,0 14.75,1.59 18.97,4.79 4.19,3.2 6.29,7.76 6.29,13.67 0,6.07 -2.3,10.83 -6.87,14.24 -4.58,3.42 -11.58,5.13 -20.99,5.13l-12.77 0 0 22.23 -23.37 0 0 -60.06zm23.37 25.67l5.74 0c4.52,0 7.7,-0.63 9.53,-1.88 1.82,-1.24 2.73,-2.84 2.73,-4.78 0,-1.89 -0.79,-3.48 -2.38,-4.8 -1.58,-1.31 -4.57,-1.97 -8.95,-1.97l-6.67 0 0 13.43zm101.81 -25.67l23.26 0 0 35.77c0,3.54 -0.7,6.9 -2.09,10.04 -1.38,3.16 -3.56,5.91 -6.52,8.28 -2.97,2.36 -6.07,4.01 -9.32,4.97 -4.52,1.33 -9.96,2 -16.3,2 -3.66,0 -7.66,-0.21 -12,-0.61 -4.33,-0.41 -7.96,-1.22 -10.87,-2.43 -2.92,-1.22 -5.58,-2.94 -7.99,-5.18 -2.42,-2.23 -4.07,-4.54 -4.96,-6.92 -1.44,-3.81 -2.16,-7.2 -2.16,-10.15l0 -35.77 23.27 0 0 36.63c0,3.27 1.14,5.83 3.4,7.66 2.28,1.84 5.44,2.77 9.47,2.77 3.98,0 7.12,-0.91 9.41,-2.73 2.26,-1.8 3.4,-4.38 3.4,-7.7l0 -36.63zm38.84 0l21.74 0 28.26 33.16 0 -33.16 22 0 0 60.06 -22 0 -28.1 -32.98 0 32.98 -21.9 0 0 -60.06zm125.37 38.33l0 -12.5 36 0 0 25.54c-6.9,3.75 -12.98,6.31 -18.26,7.67 -5.3,1.35 -11.58,2.02 -18.85,2.02 -8.94,0 -16.24,-1.21 -21.87,-3.65 -5.64,-2.41 -10,-6.04 -13.11,-10.84 -3.1,-4.8 -4.65,-10.32 -4.65,-16.54 0,-6.56 1.7,-12.25 5.09,-17.1 3.39,-4.84 8.35,-8.52 14.89,-11.03 5.11,-1.95 11.99,-2.91 20.62,-2.91 8.31,0 14.54,0.6 18.66,1.8 4.15,1.21 7.57,3.07 10.29,5.6 2.72,2.53 4.77,5.73 6.14,9.6l-22.43 3.22c-0.93,-2.28 -2.49,-4.03 -4.7,-5.23 -2.21,-1.22 -5.01,-1.82 -8.45,-1.82 -5.09,0 -9.16,1.41 -12.2,4.24 -3.03,2.82 -4.54,7.29 -4.54,13.4 0,6.49 1.53,11.13 4.6,13.91 3.05,2.79 7.33,4.18 12.8,4.18 2.6,0 5.07,-0.29 7.44,-0.89 2.35,-0.6 5.05,-1.62 8.11,-3.05l0 -5.62 -15.58 0z"/>
 </g>
</svg>
